<?xml version="1.0" encoding="UTF-8" standalone="no"?>
<!-- Created with Inkscape (http://www.inkscape.org/) -->

<svg
   xmlns:dc="http://purl.org/dc/elements/1.1/"
   xmlns:cc="http://creativecommons.org/ns#"
   xmlns:rdf="http://www.w3.org/1999/02/22-rdf-syntax-ns#"
   xmlns:svg="http://www.w3.org/2000/svg"
   xmlns="http://www.w3.org/2000/svg"
   xmlns:sodipodi="http://sodipodi.sourceforge.net/DTD/sodipodi-0.dtd"
   xmlns:inkscape="http://www.inkscape.org/namespaces/inkscape"
   width="210.00011mm"
   height="297mm"
   viewBox="0 0 210.0001 297"
   version="1.1"
   id="svg255"
   inkscape:version="0.92.3 (2405546, 2018-03-11)"
   sodipodi:docname="actors.svg">
  <defs
     id="defs249" />
  <sodipodi:namedview
     id="base"
     pagecolor="#ffffff"
     bordercolor="#666666"
     borderopacity="1.0"
     inkscape:pageopacity="0.0"
     inkscape:pageshadow="2"
     inkscape:zoom="0.68603285"
     inkscape:cx="447.53892"
     inkscape:cy="1258.5899"
     inkscape:document-units="mm"
     inkscape:current-layer="layer2"
     showgrid="false"
     showguides="false"
     inkscape:snap-global="false"
     inkscape:window-width="1920"
     inkscape:window-height="1026"
     inkscape:window-x="0"
     inkscape:window-y="0"
     inkscape:window-maximized="1"
     units="mm" />
  <metadata
     id="metadata252">
    <rdf:RDF>
      <cc:Work
         rdf:about="">
        <dc:format>image/svg+xml</dc:format>
        <dc:type
           rdf:resource="http://purl.org/dc/dcmitype/StillImage" />
        <dc:title />
      </cc:Work>
    </rdf:RDF>
  </metadata>
  <g
     inkscape:label="Layer 1"
     inkscape:groupmode="layer"
     id="layer1"
     style="display:inline"
     transform="translate(0,1.7547607e-5)">
    <g
       id="g515"
       style="stroke:#000000;stroke-width:1;stroke-miterlimit:4;stroke-dasharray:none">
      <path
         d="m 319.98572,29.043731 c 5.92282,-9.982613 21.91991,-4.278787 27.50865,1.309932 2.69687,2.696899 -4.34376,6.265425 -5.56725,6.877162 -5.57626,2.788132 -18.36222,-5.590378 -20.63146,-7.859607 m -0.98244,-4.584772 c -5.44114,-2.809704 18.31764,-7.553559 20.30399,-5.567226 1.84735,1.847359 5.16442,2.872052 7.5321,5.239739 0.3275,0.327487 -0.32747,1.637419 0,1.964903 0.99756,0.997546 1.67339,2.476 1.30994,3.929801 m -23.57882,9.497031 c 5.40392,10.68785 23.34918,0.606053 19.32154,2.61987 M 328.66406,25.441412 c -4.78732,6.431189 6.18552,13.663863 10.47947,5.075994 0.88253,-1.765077 0.0301,-4.063431 -0.65497,-4.748508"
         style="opacity:1;vector-effect:none;fill:none;fill-opacity:1;stroke:#000000;stroke-width:1;stroke-linecap:butt;stroke-linejoin:miter;stroke-miterlimit:4;stroke-dasharray:none;stroke-dashoffset:0;stroke-opacity:1"
         id="path399"
         inkscape:connector-curvature="0" />
      <path
         d="m -95.326028,3.6160325 c 3.80375,-10.12025 12.57169,-13.4301 22.36376,-13.07224 6.13539,1.0178 11.33028,4.78134 15.20358,9.85158002 -9.37154,-7.54622002 -25.56991,-9.69158002 -37.56734,3.22065998 z m 0.71609,-0.29967 c 9.57515,10.4359505 21.27497,11.2828905 31.24746,5.19404 0.33882,-1.0012 6.13764,-7.41896 4.62392,-8.78598998 -10.62755,9.04751998 -21.78613,9.07469998 -35.87138,3.59194998 z m 16.46421,-8.44524 c -5.96812,6.63216 3.97167,13.94659 9.28078,8.74832 1.10389,-1.10385 2.07791,-8.7543 -0.0761,-8.21581 -2.18763,-1.4191 -6.06052,-0.64392 -9.20473,-0.53251 z"
         style="display:inline;fill:none;stroke:#000000;stroke-width:1;stroke-linecap:butt;stroke-linejoin:miter;stroke-miterlimit:4;stroke-dasharray:none;stroke-opacity:1"
         id="path381"
         inkscape:connector-curvature="0" />
    </g>
    <g
       id="g526"
       style="stroke:#000000;stroke-width:1;stroke-miterlimit:4;stroke-dasharray:none">
      <path
         inkscape:connector-curvature="0"
         id="path425"
         d="m 354.04404,43.125522 c 4.30205,2.185095 -2.87677,10.754043 -4.25729,11.789416"
         style="opacity:1;vector-effect:none;fill:none;fill-opacity:1;stroke:#000000;stroke-width:1;stroke-linecap:butt;stroke-linejoin:miter;stroke-miterlimit:4;stroke-dasharray:none;stroke-dashoffset:0;stroke-opacity:1" />
      <path
         d="m -26.267498,3.0323425 c 1.51017,-3.18941998 2.29122,-5.73386 4.30329,-7.74592 1.62224,-1.62226 3.89862,-2.12599 5.16398,-0.86067 9.9215204,9.92157 3.32053,38.9739205 -2.15167,49.9182905 -3.49687,6.99369 -0.98622,24.46602 -12.04926,18.93454 m 7.3156,-46.04536 c -4.07918,-7.17654 2.62529,-7.3588405 6.02464,-10.7582405 m 0.43032,-4.30331 c -7.41347,-0.38071 -12.04937,8.1764305 -12.9099,9.0369605 m 3.41963,10.13572 c 11.10441,0.38071 0.54345,20.41992 -2.43432,21.90882 m -1.82572,4.86859 c -3.44713,3.68518 4.11818,9.01205 2.43432,9.43298"
         style="display:inline;fill:none;stroke:#000000;stroke-width:1;stroke-linecap:butt;stroke-linejoin:miter;stroke-miterlimit:4;stroke-dasharray:none;stroke-opacity:1"
         id="path327"
         inkscape:connector-curvature="0" />
    </g>
    <g
       id="g1083">
      <path
         d="m 317.69335,73.909003 c 0.92566,7.225994 4.37613,16.226291 2.29237,24.561283 m -50.10498,26.198694 c -6.67553,-1.41223 10.72109,-18.09747 17.35663,-11.46194 1.22985,1.22987 6.44681,4.06782 8.51457,4.58477 M 236.80489,66.376875 c 6.2034,12.717174 -9.73712,40.380955 5.56721,46.502685 m 22.59638,-48.467588 c -14.38549,4.425535 -14.39681,17.306708 -17.35664,29.146035 m 78.26859,-8.514569 c 2.75113,2.025509 -1.69203,8.132496 0.3275,10.152005 9.61233,9.612327 -9.93367,24.452087 -13.09934,30.783467 m -48.4676,-36.023217 c 3.85665,6.715687 18.16731,6.050426 22.59638,10.479467 1.75866,1.75867 7.3424,-0.913553 9.8245,0.3275 2.05418,1.02709 9.48319,3.93672 12.77188,2.29238 2.24329,-1.12164 5.41408,-2.61988 6.87715,-2.61988 M 264.96848,88.318281 c 10.01889,3.13783 24.1581,-7.935294 31.76592,-0.327492 0.99761,0.99763 4.90951,-0.656321 6.22219,0 2.08062,1.040319 5.03723,4.382288 6.54966,5.894717 1.25316,1.253152 6.91279,2.965159 8.1871,3.602315 m -43.55534,-7.20463 c 3.6784,0.783081 7.14495,0 10.80698,0 4.25013,0 12.07039,2.924086 16.0467,4.912252 3.82064,1.910304 6.83934,2.764699 10.47947,4.584753 0.12571,0.06276 1.31738,0.654964 1.30993,0.654964 -2.40059,0 -9.80749,-2.930332 -11.46193,-4.584751 -2.69388,-2.693909 -10.9021,2.197246 -13.42682,-0.327499 -3.38963,-3.389599 -10.36317,-3.544162 -13.75433,-5.239719 z m -3.27482,-10.479496 c -2.0736,2.516504 -1.92562,6.028985 1.30992,3.602339 m -2.29237,-2.619876 c 18.05448,-5.05358 40.00856,-1.198803 47.15764,13.099348 m -45.19275,-9.16954 c 7.69343,-0.751666 19.53302,-4.373315 25.21624,1.309913 1.29438,1.294376 5.33885,-1.538307 6.54969,-0.327467 3.31069,3.31069 10.06701,10.091367 15.06423,8.84206"
         style="opacity:1;vector-effect:none;fill:none;fill-opacity:1;stroke:#000000;stroke-width:1;stroke-linecap:butt;stroke-linejoin:miter;stroke-miterlimit:4;stroke-dasharray:none;stroke-dashoffset:0;stroke-opacity:1"
         id="path888"
         inkscape:connector-curvature="0" />
      <path
         inkscape:connector-curvature="0"
         d="m -138.30549,84.44306 c 3.99253,0.69071 8.29319,-0.83189 11.49929,-3.59957 6.75684,-3.89203 15.28278,4.23379 24.32479,-1.0775 5.841972,-3.43161 18.111482,0.59904 26.815042,-0.0274 -8.65033,1.39295 -19.8223,5.7769 -24.12005,5.13678 -6.943962,2.06063 -15.395402,0.55064 -22.550992,0.48288 -5.24467,-0.48064 -10.30103,0.27187 -15.96808,-0.91572 z m 4.24028,2.71885 c 2.269,4.07815 7.72083,12.02028 15.36543,12.70951 2.43974,0.21999 8.94902,-3.62778 16.26874,-1.74342 9.303102,2.39504 10.379432,-1.39821 17.938932,-9.06238 2.34373,-3.24551 4.77947,-6.12532 7.99467,-8.0868 -7.65412,-1.36037 -14.19123,4.78508 -21.80792,4.43169 -11.779212,1.10471 -26.501122,-1.50503 -38.186752,0.21632 z"
         style="display:inline;fill:none;stroke:#000000;stroke-width:1;stroke-linecap:butt;stroke-linejoin:miter;stroke-miterlimit:4;stroke-dasharray:none;stroke-opacity:1"
         id="path373" />
    </g>
    <g
       id="g1093">
      <path
         style="opacity:1;vector-effect:none;fill:none;fill-opacity:1;stroke:#000000;stroke-width:1;stroke-linecap:butt;stroke-linejoin:miter;stroke-miterlimit:4;stroke-dasharray:none;stroke-dashoffset:0;stroke-opacity:1"
         d="m 349.78675,54.914938 c 4.9692,-9.938426 9.49703,-27.830844 9.49703,-41.917909 0,-1.624041 -2.92858,-6.568459 -1.30994,-8.187086 2.77598,-2.775987 3.88889,-20.058309 1.96491,-23.906309 -1.50871,-3.017414 -3.89215,-4.836904 -5.23975,-7.532129 -0.75625,-1.512475 -5.00003,-2.336279 -6.22219,-2.947351 -6.88429,-3.442144 -24.3689,-14.274174 -32.0934,-6.549675 -0.94655,0.946552 -3.97853,0.376207 -4.91225,1.309937 -2.97744,2.977447 -25.20589,-4.267634 -27.18113,-2.29239 -1.04091,1.040905 -4.15557,1.422809 -5.89472,2.29239 -4.96689,2.483443 -9.17226,3.931164 -14.40928,6.549671 -8.49443,4.247211 -21.62397,1.806178 -29.80101,5.894704 -5.98087,2.990435 -7.26522,15.840374 -10.152,21.613927 -2.73357,5.467133 -7.59602,13.120386 -6.87716,19.976503 -3.25598,-2.002199 -7.81582,10.876712 -10.85746,8.477066 -5.86419,8.694251 -3.53582,20.604994 -5.68047,28.528591 -3.64983,17.814442 -0.0997,35.43226 10.31574,45.847722 3.46041,3.4604 4.79427,9.74584 8.84206,12.44437 6.60713,4.40477 9.96623,7.34635 15.39173,12.77185 3.71912,3.71914 9.65248,6.05019 13.09935,9.49703 3.66816,3.66819 13.79175,5.93216 15.39173,7.53215 33.62671,11.49326 47.77865,-8.4806 65.82421,-26.52619 3.71261,-3.71261 6.51488,-19.614225 11.78943,-24.888749 4.38599,-4.38601 2.72358,-14.840486 6.54966,-18.666591 2.6237,-2.62367 4.86596,-17.075424 1.96491,-19.976498 z"
         id="path902"
         inkscape:connector-curvature="0"
         sodipodi:nodetypes="csccccccccsssccccccccscccc" />
      <path
         id="path1090"
         d="m -71.021838,-87.982477 c -29.340532,0.11345 -21.62224,12.18737 -31.089962,22.20551 -8.2554,7.05718 -17.77522,10.60032 -27.5068,15.03589 -12.16673,0.22779 -21.69771,8.84429 -32.58164,12.3038 -11.34444,-3.78379 -19.39401,4.26417 -21.77082,16.27512 -2.53634,11.22188 -7.15408,22.70794952 -4.44295,34.21734 2.53151,17.71437 7.16377,36.36646 11.99393,53.54879 0.84303,17.539447 9.14104,30.095267 14.24802,44.663287 13.08869,17.03919 25.75732,25.53244 40.3779,25.26344 20.67017,4.3874 44.189532,0.3962 59.336842,-15.26958 13.25874,-12.63206 19.59177,-23.35163 25.65543,-40.67142 3.35332,-17.570867 3.86135,-27.661897 2.1384,-39.846327 5.38201,-22.30909 2.4296,-35.5275605 6.65257,-50.81767 -2.14717,-12.47767 -21.07777,-28.41635 -19.28061,-31.75815 3.92299,-7.29462 0.49276,-11.58547 -4.1297,-16.98606 -3.85354,-8.50753 -13.32427,-17.34801 -19.60061,-28.16397 z"
         style="display:inline;fill:none;stroke:#000000;stroke-width:1;stroke-linecap:butt;stroke-linejoin:miter;stroke-miterlimit:4;stroke-dasharray:none;stroke-opacity:1"
         inkscape:connector-curvature="0" />
    </g>
    <g
       style="display:inline"
       id="g1087">
      <path
         d="m 181.46014,41.488113 c -1.38473,11.506077 -4.91226,24.209339 -4.91226,35.040759 m 12.44438,-23.578829 c -1.95773,6.864499 -4.05033,20.752003 -8.51457,25.216241 m 59.27454,111.016976 c 3.09415,-4.12556 8.07892,-5.02339 10.47948,-9.82453 0.68614,-1.37223 2.51623,-5.13609 3.27484,-5.89469 3.29345,-3.29344 -10.15199,-17.18163 -10.15199,-22.59638 0,-5.93191 -17.66273,-16.25077 -23.25134,-19.9765 -5.86211,-3.90807 -6.84108,-12.73578 -11.13446,-17.02915 -2.15719,-2.15721 -6.59087,-3.31607 -9.16954,-5.89472 -5.2371,-5.2371 -6.47394,-14.006066 -10.80696,-18.339072 -1.5133,-1.513309 -4.78168,-2.489304 -6.54966,-4.257305 -1.60607,-1.606042 -0.86616,-4.634796 -2.61987,-6.549663 -1.63559,1.247841 -2.10941,-3.202572 -3.27485,-2.619869 -4.17816,2.089101 -7.5266,8.176064 -9.49702,12.1169 m -1.63742,-1.309932 c -8.25317,6.832262 -13.46469,16.084551 -19.64903,22.268881 -5.26812,5.26812 -15.26645,6.3233 -22.26888,9.8245 -2.57358,1.2868 -5.39301,4.17019 -8.18709,5.56725 -10.55627,5.27812 -25.53726,9.65913 -35.36824,12.11687 m 85.14575,-47.485124 c 9.99734,2.687535 10.38192,16.325394 17.68413,19.976504 1.73829,0.86914 4.35033,1.73048 5.56722,2.94734 2.86944,2.86947 4.47129,11.23502 6.54966,15.39175 3.95693,7.91383 12.42647,11.09863 16.37419,18.99403 2.56803,5.13607 0.594,12.38341 4.91226,16.70171 4.62937,4.62936 9.68784,13.80843 12.77187,19.97651 1.11157,2.22315 -0.11057,5.41979 0.98244,6.87715 m 25.87121,-16.04669 c 8.87418,-1.46476 10.78787,-8.4382 12.44438,-15.06427 m 10.47948,-11.46194 c -4.99468,3.44435 -16.49592,12.60381 -17.68412,17.35663 m -14.0818,23.25137 c -0.58036,1.54125 -0.86363,4.82241 0,6.54963 1.77342,3.54684 4.69671,4.1537 6.22219,7.20468 1.44221,2.88442 -2.55169,10.54765 -0.65496,12.44438 3.80004,3.80005 5.10151,42.29643 9.82451,51.74241 2.7096,5.41921 -2.1486,14.55306 2.29238,18.99407 m 2.94736,-101.19248 c 6.02494,4.13235 -4.35972,16.59925 -0.65498,20.30398 7.39762,7.39763 1.41131,31.96864 6.54969,42.2454 3.04575,6.09155 -2.66315,16.94261 0.32748,22.92388 2.74146,5.48292 -3.43695,13.18203 2.94734,16.37419 m -4.91225,-70.40898 c 6.07487,5.36962 6.87489,13.42456 11.46193,18.01157 1.37206,1.37206 -0.20462,5.69019 0.98247,6.87718 2.02176,2.02173 3.62752,4.30774 4.91225,6.87716 1.42095,2.84189 -0.0336,6.81028 1.30994,9.49703 2.70625,5.41249 3.38901,12.01778 6.22218,17.6841 0.96061,1.92123 -0.96063,5.28339 0,7.20465 3.65596,7.31189 2.62672,19.66273 6.87716,28.1636 3.94414,7.88832 -0.51511,22.40873 5.56722,28.49107 m -81.54345,-147.0402 c 1.95113,-0.66335 3.31039,2.32796 4.2573,3.27484 3.37321,3.37324 3.11933,17.7006 5.56722,22.59638 5.80878,11.61755 16.43742,46.89344 23.25133,53.70734 2.688,2.688 -0.75488,11.36201 1.96491,14.08179 9.45967,9.45966 7.21732,29.8137 16.0467,38.64309 1.71565,1.71564 0.97177,14.7795 0.32748,17.35663 M 150.34919,114.18948 c 5.34193,1.30114 6.34264,9.02275 9.49702,13.75431 3.89311,5.83966 11.47093,9.51504 14.0818,14.73678 2.83649,5.67296 1.94205,13.38111 4.58477,18.66659 3.60122,7.2024 7.40713,12.19434 10.47948,18.33907 0.93008,1.86017 0.17997,4.76475 1.63742,6.22221 17.62133,17.62132 28.35751,34.05185 38.3156,58.94704 2.9921,7.4803 8.54804,13.52725 11.13444,21.28644 1.28267,3.84799 7.22616,8.8851 9.16954,12.77188 2.06557,4.13113 1.54017,10.18773 2.94735,14.40928 1.76719,5.30155 8.68064,13.43145 11.46193,18.99404 5.38553,10.77104 5.73698,24.40356 13.42683,32.09341 m -0.14323,-110.00038 c -2.4267,27.26536 5.15146,77.10795 11.57828,102.81528 m -9.72575,-44.92378 c -6.88193,18.51122 13.2474,27.59541 9.26264,43.53442"
         style="opacity:1;vector-effect:none;fill:none;fill-opacity:1;stroke:#000000;stroke-width:1;stroke-linecap:butt;stroke-linejoin:miter;stroke-miterlimit:4;stroke-dasharray:none;stroke-dashoffset:0;stroke-opacity:1"
         id="path413"
         inkscape:connector-curvature="0" />
      <path
         d="m -259.93678,185.92266 c 10.09064,-19.72635 42.45041,-45.7054 58.51687,-56.4977 15.83645,-4.12022 18.11767,-24.72487 33.14345,-27.95459 9.41177,16.1833 -2.96939,42.48878 5.619,57.12052 7.6674,22.0484 36.14522,25.31683 56.34232,18.22816 27.839742,-3.51459 50.561062,-22.17524 70.028042,-41.02995 7.57763,-11.69269 4.67346,-37.09744 -1.81447,-48.4121 l 12.69469,16.99811 c 28.3195104,29.61389 33.0389004,34.56248 48.7051,51.1605 8.58919,8.98387 9.55802,22.44024 13.69443,31.24809 M -251.76051,173.2279 c -5.84348,2.19582 -15.49561,11.40752 -17.64354,13.55544 m 224.632302,-86.06605 c -27.17274,45.85983 -91.304442,60.06214 -119.416552,7.5308 m 8.39141,21.94682 c 6.60887,36.14929 30.70209,38.41861 60.451622,24.73392 21.75327,-15.0426 36.22866,-23.7154 44.11859,-41.73194 m -114.898132,33.78092 c -10.67314,3.60429 -35.76009,31.28426 -39.59037,38.94485 m 22.80749,-24.0985 c -3.9514,7.28333 -1.02652,17.01601 -3.01231,24.95918 M 28.169232,163.11519 c -2.73116,-1.58133 22.71694,13.35064 29.04728,22.80747 m -97.2546,-43.033 c -3.5775,4.90553 -9.17311,41.38088 -13.33883,41.31136"
         style="display:inline;fill:none;stroke:#000000;stroke-width:1;stroke-linecap:butt;stroke-linejoin:miter;stroke-miterlimit:4;stroke-dasharray:none;stroke-opacity:1"
         id="path347"
         inkscape:connector-curvature="0" />
    </g>
    <g
       id="g503"
       style="display:inline;stroke:#000000;stroke-width:1;stroke-miterlimit:4;stroke-dasharray:none">
      <path
         id="path393"
         d="m 335.04997,3.82749 c -0.4648,-0.08011 -3.45474,-1.457516 -4.25729,-0.654971 -11.09637,11.096382 18.61565,12.720936 22.26889,16.374188 3.50323,3.503228 -1.30249,12.124318 1.9649,15.391728 0.0995,0.09959 1.21512,-0.887617 1.30994,-0.98245 4.13252,-4.132506 0.65497,-10.232734 0.65497,-15.064251 0,-7.706698 -14.22084,-16.701661 -22.26888,-16.701661"
         style="opacity:1;vector-effect:none;fill:none;fill-opacity:1;stroke:#000000;stroke-width:1;stroke-linecap:butt;stroke-linejoin:miter;stroke-miterlimit:4;stroke-dasharray:none;stroke-dashoffset:0;stroke-opacity:1"
         inkscape:connector-curvature="0" />
      <path
         id="path339"
         d="m -104.37244,-19.990307 c 7.045842,-1.08205 14.334182,-2.51319 21.086152,-1.93648 13.88679,1.18611 25.28551,-1.22847 35.50228,6.88528 1.1515,1.15153 7.78647,10.2873895 5.16393,12.9098895 -0.0975,0.20629 -11.81902,-15.3004795 -19.14967,-11.7264795 -4.91823,0.51594 -31.85714,8.8828595 -40.235902,7.9610995 -1.21138,-1.21141 -4.83708,-12.2405895 -2.36679,-14.0933095 z"
         style="display:inline;fill:none;stroke:#000000;stroke-width:1;stroke-linecap:butt;stroke-linejoin:miter;stroke-miterlimit:4;stroke-dasharray:none;stroke-opacity:1"
         inkscape:connector-curvature="0" />
    </g>
    <g
       id="g545"
       style="display:inline;stroke:#000000;stroke-width:1;stroke-miterlimit:4;stroke-dasharray:none">
      <path
         d="m 198.16181,17.254317 c -3.54599,-2.331721 0.60303,-9.221474 -1.63742,-11.461929 -1.8631,-1.863093 -1.80654,-5.408856 -3.27484,-6.877157 -20.7419,-20.741895 -16.46531,40.876377 -6.22219,38.315594 m 5.23973,-43.882812 c -0.76226,-2.678509 -6.19474,-5.4172 -9.82449,-3.602322 -12.28519,6.142596 -7.66394,33.794675 -2.94736,43.227841 1.11424,2.228491 -0.80431,5.923494 0.32749,8.187094 1.90383,3.807672 5.56821,5.89571 8.18708,8.514574 2.80718,2.807175 11.73931,12.217098 16.04671,3.602322 0.88144,-1.762894 -0.0381,-1.92676 1.30993,-3.274835 m -6.22219,-31.438433 c 2.36648,4.350538 -3.3544,12.692304 0.32748,16.374181 0.58785,0.587852 1.8138,2.29239 0.98245,2.29239 -0.40936,0 -0.89955,-1.595972 -1.63741,-1.964903 -1.98426,-0.992133 -5.53198,-1.947281 -7.53213,-2.947356 M 185.71743,8.084778 c -4.80612,6.959306 -1.3448,14.924796 0.32748,21.613919 m 3.60231,1.964903 c -5.90936,-6.698512 4.77544,-29.038408 7.53213,-18.011604 m 2.94736,6.877161 c -4.64669,0.899739 -3.45153,10.755158 -2.94736,12.771862"
         style="opacity:1;vector-effect:none;fill:none;fill-opacity:1;stroke:#000000;stroke-width:1;stroke-linecap:butt;stroke-linejoin:miter;stroke-miterlimit:4;stroke-dasharray:none;stroke-dashoffset:0;stroke-opacity:1"
         id="path427"
         inkscape:connector-curvature="0"
         sodipodi:nodetypes="ccsccsccsccccssccccccc" />
      <path
         d="m -187.99422,26.212983 c -11.42605,-6.44093 -7.86739,13.61422 0.3043,35.60184 m 6.50355,-9.72485 c 2.48044,6.65074 -2.55133,8.43177 -3.56868,12.50122 m -4.6076,-49.50957 c -5.95619,-10.3127305 -14.44695,1.79826 -15.49188,2.58196 m 15.49189,-4.73366 c 0,0.15575 -8.27606,-6.3551105 -13.77056,-0.86062 -7.49311,7.49308 -2.75279,19.0232 0.43036,25.38949 1.13774,2.27547 -0.54925,7.19666 1.29098,9.0369 7.10024,7.10026 7.53925,27.541127 20.22552,27.541127 4.23578,0 3.44264,-4.793217 3.44264,-7.745917"
         style="display:inline;fill:none;stroke:#000000;stroke-width:1;stroke-linecap:butt;stroke-linejoin:miter;stroke-miterlimit:4;stroke-dasharray:none;stroke-opacity:1"
         id="path333"
         inkscape:connector-curvature="0" />
    </g>
    <path
       inkscape:connector-curvature="0"
       id="path877"
       d="m 288.05731,34.265791 c -7.40137,1.009529 -11.48038,12.576003 -12.04144,14.820224"
       style="display:inline;opacity:1;vector-effect:none;fill:none;fill-opacity:1;stroke:#000000;stroke-width:1;stroke-linecap:butt;stroke-linejoin:miter;stroke-miterlimit:4;stroke-dasharray:none;stroke-dashoffset:0;stroke-opacity:1" />
    <path
       inkscape:connector-curvature="0"
       id="path875"
       d="m 254.24868,47.233484 c 0.20837,-11.700399 42.23105,-22.251839 31.02984,-19.451538"
       style="display:inline;opacity:1;vector-effect:none;fill:none;fill-opacity:1;stroke:#000000;stroke-width:1;stroke-linecap:butt;stroke-linejoin:miter;stroke-miterlimit:4;stroke-dasharray:none;stroke-dashoffset:0;stroke-opacity:1" />
    <path
       inkscape:connector-curvature="0"
       id="path873"
       d="m 304.26653,76.528872 c -0.20242,1.256051 -1.19312,2.386191 -1.63744,3.274823"
       style="display:inline;opacity:1;vector-effect:none;fill:none;fill-opacity:1;stroke:#000000;stroke-width:1;stroke-linecap:butt;stroke-linejoin:miter;stroke-miterlimit:4;stroke-dasharray:none;stroke-dashoffset:0;stroke-opacity:1" />
    <path
       inkscape:connector-curvature="0"
       id="path549"
       d="m 301.97412,73.909003 c -2.20575,1.582344 -3.6374,4.194911 -3.92978,4.58478"
       style="display:inline;opacity:1;vector-effect:none;fill:none;fill-opacity:1;stroke:#000000;stroke-width:1;stroke-linecap:butt;stroke-linejoin:miter;stroke-miterlimit:4;stroke-dasharray:none;stroke-dashoffset:0;stroke-opacity:1" />
  </g>
  <g
     inkscape:groupmode="layer"
     id="layer2"
     inkscape:label="Layer 2"
     transform="translate(0,1.7547607e-5)"
     style="display:inline">
    <g
       id="g1220">
      <path
         d="m 267.09712,4.646199 c -6.196,12.657738 15.01784,12.351552 9.16954,0.654966 m 14.57302,15.555472 C 280.2559,31.440428 262.97657,22.686853 254.489,11.6871 m 2.29239,-4.912259 c 6.18079,-8.771192 18.2182,-9.617899 24.23379,-3.602322 0.87905,0.87906 3.05074,0.10339 3.92981,0.982453 1.11485,1.114858 4.52592,3.157133 5.23973,4.584772 0.90676,1.813525 0.43402,11.363237 1.30994,7.859607 m -1.97831,3.070303 c -2.43301,-3.649499 -6.54666,0.854318 -10.46608,-1.1054 C 271.7862,14.932219 264.81181,13.040687 258.4054,7.10232 m 0.34089,5e-6 c 12.94506,-5.507935 31.11095,-4.043462 31.11095,12.771862 m 0.32748,29.593961 c -9.68833,2.06707 -7.72416,11.077878 -4.91226,16.70166 l 4.91226,2.947368 c 1.12577,-0.28145 2.98751,-12.404232 7.53213,-7.85962 1.26368,1.263695 3.45772,2.147793 4.91224,3.602342 1.79443,1.794391 -2.47019,5.061904 -0.65497,6.877128 1.88596,1.885968 4.6594,1.447201 7.4614,0.08532 3.91366,-1.902182 7.88304,-5.605229 9.56776,-7.28995 l -9.16953,7.859603 c 4.49305,2.409462 10.34812,-0.52543 8.84204,-6.549663 l 0.32749,-1.30994 c 8.01687,-8.01687 -15.73735,-48.116862 9.8245,-52.397386 M 252.5241,-11.564246 c 6.08992,-6.08992 16.18383,-10.410909 25.87121,-5.567225 1.85568,0.927847 4.64753,0.06276 5.89472,1.30994 2.8997,2.899711 6.82657,5.567222 11.13443,5.567222 2.27315,0 13.94973,6.026762 10.15198,9.824506 -5.25529,5.255307 -30.7294,-6.522645 -37.33313,-9.824506 -1.03004,-0.515022 -2.87586,0.583471 -3.27483,0.982453 -4.82165,4.821641 -15.154,5.671529 -20.79521,6.5496705 1.45674,-4.3998925 5.71323,-6.2044565 8.35083,-8.8420605 z m -46.70465,32.84792 C 197.36326,12.82748 203.4814,7.837153 200.78167,5.137429 c -3.15959,-3.159603 -3.57218,-8.156964 -7.20463,-11.789416 -2.26265,-2.262647 -4.85031,-3.540381 -6.87716,-5.567225 -1.13546,-1.135462 1.14482,-9.986886 1.63742,-10.479476 2.79312,-2.793119 -1.59621,-11.830621 1.63742,-15.064249 4.01649,-4.016498 2.74081,-13.220295 6.54967,-17.029152 6.27213,-6.272137 10.44925,-15.361505 16.37419,-21.286442 9.04403,-9.04403 21.39357,-15.17138 29.80101,-23.57882 3.05775,-3.057749 9.45427,-1.452299 13.09935,-3.274839 4.97634,-2.48817 36.79929,-5.83414 41.91791,-3.27483 14.59606,7.298029 38.08464,9.593559 49.45002,20.958949 2.13074,2.13074 5.68757,3.72266 7.85963,5.89471 1.63047,1.63048 1.19679,4.471642 2.94734,6.222185 1.06505,1.065053 3.59695,1.632057 4.58478,2.619869 4.64002,4.640024 12.99721,22.064627 16.37417,28.818561 1.10974,2.219473 0,8.290543 0,10.806963 0,7.360967 -12.73223,9.745247 -15.39173,15.064252 -0.25101,0.50201 3.82432,0.549485 5.56722,2.29239 1.38397,1.383961 9.50189,12.767016 7.8596,14.409277 -3.20525,3.205263 -3.00981,9.886976 -6.87716,13.754317 -3.18456,3.184568 -11.07871,12.876426 -11.78941,15.719217 m -8.51456,24.561268 c 4.9692,-9.938426 9.49703,-27.830844 9.49703,-41.917909 0,-1.624041 -2.92858,-6.568459 -1.30994,-8.187086 2.77598,-2.775987 3.88889,-20.058309 1.96491,-23.906309 -1.50871,-3.017414 -3.89215,-4.836904 -5.23975,-7.532129 -0.75625,-1.512475 -5.00003,-2.336279 -6.22219,-2.947351 -6.88429,-3.442144 -24.3689,-14.274174 -32.0934,-6.549675 -0.94655,0.946552 -3.97853,0.376207 -4.91225,1.309937 -2.97744,2.977447 -25.20589,-4.267634 -27.18113,-2.29239 -1.04091,1.040905 -4.15557,1.422809 -5.89472,2.29239 -4.96689,2.483443 -9.17226,3.931164 -14.40928,6.549671 -8.49443,4.247211 -21.62397,1.806178 -29.80101,5.894704 -5.98087,2.990435 -7.26522,15.840374 -10.152,21.613927 -2.73357,5.467133 -7.59602,13.120386 -6.87716,19.976503 -3.25598,-2.002199 -7.81582,10.876712 -10.85746,8.477066 -5.86419,8.694251 -3.53582,20.604994 -5.68047,28.528591 -3.64983,17.814442 -0.0997,35.43226 10.31574,45.847722 3.46041,3.4604 4.79427,9.74584 8.84206,12.44437 6.60713,4.40477 9.96623,7.34635 15.39173,12.77185 3.71912,3.71914 9.65248,6.05019 13.09935,9.49703 3.66816,3.66819 13.79175,5.93216 15.39173,7.53215 33.62671,11.49326 47.77865,-8.4806 65.82421,-26.52619 3.71261,-3.71261 6.51488,-19.614225 11.78943,-24.888749 4.38599,-4.38601 2.72358,-14.840486 6.54966,-18.666591 2.6237,-2.62367 4.86596,-17.075424 1.96491,-19.976498 z"
         style="display:inline;opacity:1;vector-effect:none;fill:none;fill-opacity:1;stroke:#000000;stroke-width:1;stroke-linecap:butt;stroke-linejoin:miter;stroke-miterlimit:4;stroke-dasharray:none;stroke-dashoffset:0;stroke-opacity:1"
         id="path395" />
      <path
         d="m -153.98988,2.7065925 c 1.12108,16.6457705 19.13964,4.66312 12.09549,-2.05391998 -7.56914,-1.3025 -10.29549,0.80779998 -12.09549,2.05391998 z m 24.99124,2.99996 c -11.84712,12.4541605 -32.80865,9.5156805 -36.12603,7.3108105 m 36.5117,-7.3108105 c -1.6666,3.58598 -3.52133,6.5744605 -5.66187,8.6723305 -4.81344,3.13272 -8.58472,4.12319 -14.3855,4.68129 -5.75128,0.38882 -13.24854,-2.441273 -17.28246,-5.361033 m 0.88743,-1.540897 c 1.39464,-1.63381 3.81586,-3.5613905 4.63242,-4.6074205 7.61408,-9.75354 20.5681,-9.3237089 31.57068,-2.3132289 m -36.78161,6.9206494 c 0.4987,-7.4492804 7.18595,-15.1695704 14.84871,-16.8576004 8.51666,0.10133 18.05625,2.4292 22.4632,9.98516 m 38.795902,48.0951504 c 4.20194,-7.16756 -2.54848,-16.08903 -7.34171,-18.50863 l -4.161482,-1.653529 c 0.36294,6.574749 0.20457,8.319931 1.01823,13.03027 -1.06241,-4.880477 -0.53114,-9.407847 -1.05232,-13.064359 l 4.195572,1.687618 -4.297842,-2.369396 c -2.83842,-19.913922 -3.76553,-23.017796 -2.99164,-32.48289438 m -24.90697,-6.96358002 c 16.05063,12.3353 9.97181,29.6549704 10.27574,55.5909004 l 0.43031,-21.89462 c 0.76973,5.9898 -17.39445,20.49384 -10.32789,29.21023 1.76656,2.17897 6.82465,-3.45502 9.67157,-2.86016 9.09096,11.31533 8.45521,12.34974 15.99608,5.11178 3.269262,-10.37294 11.448322,-1.4788 13.492352,-4.83363 m -73.069132,-66.60644 c 7.04637,-0.16053 12.86039,0.67289 20.12586,-2.07908 3.83719,-1.45342 7.74966,0.19407 8.6193,1.44646 5.50548,4.3654596 1.92154,10.0234596 -4.08812,10.1127596 -4.31427,-0.10902 -8.44665,-2.37995 -12.26443,-2.15165 -4.91851,0.29413 -11.49771,2.08958 -16.35255,2.04408 -4.78776,-0.04322 -5.70307,2.83858 -11.83408,9.68241 -0.18334,-14.48978 3.41591,-18.7729896 15.79402,-19.0549796 z m -26.76744,26.15541 c -0.35197,-2.166968 -2.20448,-3.6555112 -3.60864,-5.1783298 -8.31767,-4.9288072 -10.41364,-14.2377815 -15.38146,-21.6595232 -4.32541,-7.195919 -3.51252,-16.276788 -7.58071,-23.739082 -2.04988,-9.723344 -7.84541,-20.183663 -2.69163,-29.894775 2.17268,-8.260252 8.84036,-14.03792 11.72148,-22.03233 2.55809,-8.529778 7.47173,-16.287463 15.11358,-21.087893 20.11487,-13.3685 44.67451,-18.81621 63.53426,-34.33919 9.45088,-2.08164 20.12323,-4.73825 29.173355,0.11307 8.649438,2.47496 12.598251,9.42247 14.919769,17.61553 6.038314,12.62156 10.220338,26.13824 13.395913,39.985618 -1.374656,-12.221109 -4.953445,-24.322908 -9.509075,-35.906138 -2.871645,-5.91876 -11.326306,-19.48387 1.156505,-14.39179 9.465206,2.50604 18.411553,6.85446 27.452791,10.35361 13.656479,9.14971 25.603915,21.31512 33.144924,36.021353 1.590465,11.461217 2.632384,23.044564 4.941251,34.34764 0.161515,9.080842 -0.06952,18.372589 -2.359241,27.18957 -6.596405,12.517745 -11.497086,26.0286823 -15.3441,39.6432609 l -0.14781,1.2381091 m -39.59036,-99.19111 c -29.340532,0.11345 -21.62224,12.18737 -31.089962,22.20551 -8.2554,7.05718 -17.77522,10.60032 -27.5068,15.03589 -12.16673,0.22779 -21.69771,8.84429 -32.58164,12.3038 -11.34444,-3.78379 -19.39401,4.26417 -21.77082,16.27512 -2.53634,11.22188 -7.15408,22.70794962 -4.44295,34.21734 2.53151,17.71437 7.16377,36.36646 11.99393,53.54879 0.84303,17.539447 9.14104,30.095267 14.24802,44.663287 13.08869,17.03919 25.75732,25.53244 40.3779,25.26344 20.67017,4.3874 44.189532,0.3962 59.336842,-15.26958 13.25874,-12.63206 19.59177,-23.35163 25.65543,-40.67142 3.35332,-17.570867 3.86135,-27.661897 2.1384,-39.846327 5.38201,-22.30909 2.4296,-35.5275604 6.65257,-50.81767 -2.14717,-12.47767 -21.07777,-28.41635 -19.28061,-31.75815 3.92299,-7.29462 0.49276,-11.58547 -4.1297,-16.98606 -3.85354,-8.50753 -13.32427,-17.34801 -19.60061,-28.16397 z"
         style="display:inline;fill:none;stroke:#000000;stroke-width:1;stroke-linecap:butt;stroke-linejoin:miter;stroke-miterlimit:4;stroke-dasharray:none;stroke-opacity:1"
         id="path377" />
    </g>
  </g>
</svg>
