<?xml version="1.0" encoding="UTF-8" standalone="no"?>
<!-- Created with Inkscape (http://www.inkscape.org/) -->

<svg
   xmlns:dc="http://purl.org/dc/elements/1.1/"
   xmlns:cc="http://creativecommons.org/ns#"
   xmlns:rdf="http://www.w3.org/1999/02/22-rdf-syntax-ns#"
   xmlns:svg="http://www.w3.org/2000/svg"
   xmlns="http://www.w3.org/2000/svg"
   xmlns:sodipodi="http://sodipodi.sourceforge.net/DTD/sodipodi-0.dtd"
   xmlns:inkscape="http://www.inkscape.org/namespaces/inkscape"
   width="210mm"
   height="297mm"
   viewBox="0 0 210 297"
   version="1.1"
   id="svg8"
   inkscape:version="0.92.3 (2405546, 2018-03-11)"
   sodipodi:docname="symbols.svg">
  <sodipodi:namedview
     id="base"
     pagecolor="#ffffff"
     bordercolor="#666666"
     borderopacity="1.0"
     inkscape:pageopacity="0.0"
     inkscape:pageshadow="2"
     inkscape:zoom="0.42002431"
     inkscape:cx="802.43983"
     inkscape:cy="503.04708"
     inkscape:document-units="mm"
     inkscape:current-layer="layer1"
     showgrid="false"
     inkscape:window-width="1920"
     inkscape:window-height="1026"
     inkscape:window-x="0"
     inkscape:window-y="0"
     inkscape:window-maximized="1"
     inkscape:snap-global="true"
     showborder="false"
     showguides="false" />
  <defs
     id="defs2">
    <marker
       inkscape:stockid="Arrow1Lend"
       orient="auto"
       refY="0.0"
       refX="0.0"
       id="Arrow1Lend"
       style="overflow:visible;"
       inkscape:isstock="true">
      <path
         id="path909"
         d="M 0.0,0.0 L 5.0,-5.0 L -12.5,0.0 L 5.0,5.0 L 0.0,0.0 z "
         style="fill-rule:evenodd;stroke:#ff0000;stroke-width:1pt;stroke-opacity:1;fill:#ff0000;fill-opacity:1"
         transform="scale(0.8) rotate(180) translate(12.5,0)" />
    </marker>
    <marker
       inkscape:stockid="Arrow2Lend"
       orient="auto"
       refY="0.0"
       refX="0.0"
       id="Arrow2Lend"
       style="overflow:visible;"
       inkscape:isstock="true">
      <path
         id="path927"
         style="fill-rule:evenodd;stroke-width:0.625;stroke-linejoin:round;stroke:#000000;stroke-opacity:1;fill:#000000;fill-opacity:1"
         d="M 8.7185878,4.0337352 L -2.2072895,0.016013256 L 8.7185884,-4.0017078 C 6.9730900,-1.6296469 6.9831476,1.6157441 8.7185878,4.0337352 z "
         transform="scale(1.1) rotate(180) translate(1,0)" />
    </marker>
    <marker
       inkscape:stockid="Arrow1Mend"
       orient="auto"
       refY="0.0"
       refX="0.0"
       id="Arrow1Mend"
       style="overflow:visible;"
       inkscape:isstock="true">
      <path
         id="path915"
         d="M 0.0,0.0 L 5.0,-5.0 L -12.5,0.0 L 5.0,5.0 L 0.0,0.0 z "
         style="fill-rule:evenodd;stroke:#000000;stroke-width:1pt;stroke-opacity:1;fill:#000000;fill-opacity:1"
         transform="scale(0.4) rotate(180) translate(10,0)" />
    </marker>
  </defs>
  <metadata
     id="metadata5">
    <rdf:RDF>
      <cc:Work
         rdf:about="">
        <dc:format>image/svg+xml</dc:format>
        <dc:type
           rdf:resource="http://purl.org/dc/dcmitype/StillImage" />
        <dc:title />
      </cc:Work>
    </rdf:RDF>
  </metadata>
  <g
     inkscape:label="Layer 1"
     inkscape:groupmode="layer"
     id="layer1"
     style="display:inline">
    <g
       id="g48">
      <path
         inkscape:connector-curvature="0"
         id="path940"
         d="M -137.66358,193.37865 H 305.06685"
         style="opacity:1;vector-effect:none;fill:none;fill-opacity:1;stroke:#000000;stroke-width:1.33392477;stroke-linecap:butt;stroke-linejoin:miter;stroke-miterlimit:4;stroke-dasharray:none;stroke-dashoffset:0;stroke-opacity:1" />
      <path
         sodipodi:nodetypes="cccccccccssccccccsscccccccccccscscccccscccccccccccccccccccsscccccccsscccccccsc"
         d="m -86.486477,-74.36052 c -1.047798,0 -2.095595,1.309744 -3.143393,3.929232 -0.943019,2.51471 -1.833637,5.762877 -2.671873,9.744502 -0.73345,3.981622 -1.309748,8.172804 -1.728862,12.573548 -0.419131,4.29596 -0.628684,8.225196 -0.628684,11.787699 l -14.302401,10.530346 c -0.41913,-1.990809 -0.78586,-3.562503 -1.1002,-4.71508 -0.20956,-1.152576 -0.36672,-1.83364 -0.47149,-2.043197 -0.10479,-0.209562 -0.26196,-0.419123 -0.47152,-0.62868 -0.20956,-0.209561 -0.57629,-0.31434 -1.10018,-0.31434 h -1.41453 c -0.73345,0 -1.25735,0.523897 -1.57169,1.571691 -0.10478,0.419122 -0.20956,0.995408 -0.31434,1.728866 -0.10476,0.733454 -0.15717,1.466912 -0.15717,2.20037 l -0.31433,6.915453 -10.8447,8.172803 c -0.73345,-4.191182 -1.30974,-6.49633 -1.72886,-6.915449 -0.10478,-0.314339 -0.57629,-0.471511 -1.41452,-0.471511 h -1.25736 c -0.83823,0 -1.36213,0.419118 -1.57169,1.257359 -0.10478,0.419118 -0.20956,0.995404 -0.31435,1.728862 -0.10477,0.628675 -0.20955,1.362133 -0.31433,2.20037 l -0.31434,6.9154485 c -9.2206,7.020233 -14.04046,10.7399079 -14.45958,11.1590261 -0.10478,0.2095587 -0.31434,0.523898 -0.62868,0.9430142 -0.20955,0.3143405 -0.36673,0.7858476 -0.47151,1.4145262 l -3.14338,10.373177 3.45774,-2.671881 44.79326,-17.445796 8.95864,-0.9430134 c 0,0.8382341 0.104782,2.514707 0.314344,5.02941641 0.209565,2.51471019 0.471515,5.44853749 0.785851,8.80148419 0.419114,3.2481658 0.838232,6.6011108 1.25735,10.0588378 0.419119,3.457726 0.838233,6.653501 1.257351,9.587328 0.419118,2.829049 0.733454,5.029419 0.943015,6.601113 l -17.602961,12.259208 -1.41454,8.644311 20.746359,-6.915449 c 0.628688,4.295961 1.414539,6.443941 2.357554,6.443941 1.047798,0 1.886034,-2.14798 2.514701,-6.443941 l 20.746359,7.072629 -1.414518,-8.801491 -17.602974,-12.259208 c 0.209565,-1.257354 0.471503,-3.248167 0.785839,-5.972435 0.419118,-2.829047 0.838232,-5.972435 1.25735,-9.430161 0.419127,-3.457724 0.78586,-6.863061 1.100203,-10.2160063 0.419119,-3.4577264 0.733454,-6.4963334 0.942999,-9.1158214 0.314344,-2.6194892 0.471512,-4.4007423 0.471512,-5.3437557 l 8.958659,0.9430134 44.793266,17.445796 3.457716,2.671881 -3.143373,-10.373177 c -0.209565,-0.7334575 -0.576294,-1.4145254 -1.100195,-2.0432011 -0.523888,-0.7334575 -0.9954,-1.3097456 -1.414518,-1.7288646 l -13.202235,-9.4301612 -0.628663,-8.6443111 c -0.104782,-0.838236 -0.209565,-1.571694 -0.314356,-2.200374 0,-0.628675 -0.05239,-1.257354 -0.157155,-1.88603 -0.314336,-0.943015 -0.838245,-1.414526 -1.571699,-1.414526 h -1.41453 c -0.523897,0 -0.995393,0.209561 -1.414507,0.628679 -0.104794,0.31434 -0.209573,0.785847 -0.314356,1.414523 -0.104774,0.5239 -0.209545,1.204965 -0.314327,2.043201 l -0.628688,5.029419 -10.844685,-8.172803 -0.785835,-8.644315 c -0.104794,-1.571695 -0.26195,-2.829049 -0.471515,-3.772065 -0.209553,-0.943015 -0.733462,-1.414522 -1.571686,-1.414522 h -1.414531 c -0.733462,0 -1.15258,0.261946 -1.257351,0.785843 -0.10479,0.31434 -0.261958,0.785847 -0.471511,1.414527 -0.104775,0.523896 -0.209565,1.204965 -0.314336,2.043202 l -0.628683,4.872247 -14.14523,-10.530346 c 0,-3.352945 -0.209565,-7.177399 -0.628691,-11.47336 -0.419118,-4.400743 -1.04779,-8.591926 -1.886022,-12.573551 -0.733454,-4.0864 -1.624084,-7.43935 -2.671881,-10.058838 -1.047798,-2.619488 -2.147985,-3.929232 -3.300553,-3.929232"
         style="font-style:normal;font-weight:normal;font-size:medium;line-height:1.25;font-family:sans-serif;letter-spacing:0px;word-spacing:0px;fill:none;fill-opacity:1;stroke:#000000;stroke-width:1.41526496;stroke-miterlimit:4;stroke-dasharray:none"
         id="path830"
         inkscape:connector-curvature="0" />
      <path
         sodipodi:nodetypes="ccccscscsscscscccsccscsscccscccccscscscccsccccccscccccccccccccscsccsscsccsccccscccccssssccssccssscssscccsccscccsssscscccscccccsccscssccscccccccsccccssssccssscccscsssscccscccccccccscc"
         inkscape:connector-curvature="0"
         id="path903"
         d="m -18.319968,113.57002 c 0,0.98757 0.395027,1.72825 1.185105,2.22204 8.986924,5.43166 16.78877202,12.34469 23.4055236,20.73908 6.6167594,8.29563 12.3940594,17.13442 17.3319484,26.51639 H -8.9873703 c -0.7900575,0 -1.5307327,0.34565 -2.2220427,1.03695 -0.69131,0.59255 -1.036963,1.28385 -1.036963,2.07391 0,0.88882 0.345653,1.67888 1.036963,2.37018 0.69131,0.59255 1.4319852,0.88882 2.2220427,0.88882 H 145.07425 c 0.79006,0 1.48136,-0.29627 2.07392,-0.88882 0.59254,-0.6913 0.88881,-1.48136 0.88881,-2.37018 0,-0.79006 -0.29627,-1.48136 -0.88881,-2.07391 -0.59256,-0.6913 -1.28386,-1.03695 -2.07392,-1.03695 h -12.44344 c 0.98757,-1.48136 1.97515,-3.35776 2.96272,-5.62917 1.08633,-2.27143 2.07391,-4.49347 2.96273,-6.66614 0.38935,-0.85658 0.76335,-1.6364 1.12201,-2.33948 0.0803,-0.15727 0.15969,-0.31069 0.23837,-0.46028 -0.54404,-0.26239 -1.07712,-0.54693 -1.61568,-0.82039 -0.26462,0.73456 -1.01893,1.10184 -2.26295,1.10184 -0.29627,0 -1.77764,-0.34566 -4.44409,-1.03696 -2.66645,-0.79007 -6.07359,-1.82701 -10.2214,-3.11087 -4.14782,-1.28384 -8.5919,-2.66645 -13.33227,-4.14781 -4.74036,-1.48136 -9.431342,-2.91335 -14.07294,-4.29595 -4.641606,-1.48137 -8.838803,-2.81459 -12.591587,-3.99968 -3.654025,-1.28384 -6.419237,-2.22204 -8.295631,-2.81458 -2.863971,-0.98758 -5.629178,-1.58013 -8.295634,-1.77764 -2.666444,-0.19752 -4.937869,-0.34565 -6.814267,-0.44441 l -41.739229,-0.95678 0.261065,3.4751 c 0.888805,0 1.580115,0.29627 2.073909,0.88881 0.493778,0.6913 1.925764,2.66646 4.295945,5.92545 2.37018,3.16024 5.283534,8.19688 8.740047,15.1099 0.197511,0.39503 0.395027,0.9382 0.592542,1.6295 0.296271,0.6913 0.444413,1.28384 0.444413,1.77764 0,0.88882 -0.197516,1.43198 -0.592555,1.6295 -0.296271,0.0987 -0.691297,0.14813 -1.185084,0.14813 -1.283844,0 -2.271425,-0.64192 -2.962727,-1.92577 -2.765211,-5.43167 -5.431663,-9.72762 -7.999363,-12.88786 -2.567684,-3.259 -4.493456,-5.43165 -5.777308,-6.51799 -0.69131,-0.59255 -1.036955,-1.3826 -1.036955,-2.37018 0,-0.98758 0.296279,-1.77763 0.888821,-2.37018 0.366469,-0.36647 0.774558,-0.6358 1.224286,-0.808 l -0.102303,-3.73007 -8.8250629,-0.20229 c -0.5925421,0 -1.4319815,-0.39503 -2.5183223,-1.18509 -0.9875607,-0.88882 -1.925768,-1.82702 -2.81457711,-2.81459 -0.79007378,-1.08633 -1.18509238,-1.87639 -1.18509238,-2.37018 0,-0.19751 0.14812943,-0.29628 0.4444005,-0.29628 l 57.92129119,1.1851 c 1.086329,0 3.357754,0.14813 6.814267,0.4444 3.555269,0.29627 6.962405,0.9382 10.221403,1.92577 2.863967,0.88882 6.616751,2.17267 11.258357,3.85155 4.740358,1.67888 9.776994,3.50589 15.109901,5.48104 5.43166,1.8764 10.61643,3.75278 15.55431,5.62918 5.03663,1.77764 9.2832,3.30838 12.73972,4.59222 3.55527,1.28385 5.72793,2.02453 6.51799,2.22204 0.88882,0.29628 1.43198,0.64193 1.6295,1.03696 0.29627,0.39503 0.44441,0.83944 0.44441,1.33323 0.55479,0.45031 1.063,0.85332 1.7448,1.03926 0.4618,-0.8779 0.89716,-1.62351 1.30607,-2.23687 0.59254,-0.98757 0.65247,-1.46885 0.65247,-2.35766 0,-0.39503 -0.2469,-1.23447 -0.74068,-2.51832 -0.39503,-1.28385 -1.77763,-2.51832 -4.14781,-3.70341 l -4.74037,-2.37018 c 0,-1.28384 0.0494,-2.71583 0.14814,-4.29595 0.0987,-1.67888 0.14813,-3.30838 0.14813,-4.88849 v -1.6295 c 0,-0.59255 -0.0494,-1.08634 -0.14813,-1.48137 0,-0.79006 -0.83944,-1.82701 -2.51831,-3.11085 -1.67889,-1.28386 -3.45652,-2.46894 -5.33291,-3.55527 -1.8764,-1.1851 -3.259,-2.07392 -4.14782,-2.66646 -1.08633,-0.69131 -2.61707,-1.77764 -4.59223,-3.259 -1.97514,-1.48136 -4.09843,-3.06148 -6.36985,-4.74036 -2.17267,-1.67888 -4.14782,-3.20962 -5.92546,-4.59222 l -1.03695,-10.369546 c -0.0987,-0.790058 -0.74068,-1.382604 -1.92578,-1.777631 -1.185081,-0.493786 -2.222035,-0.740684 -3.110853,-0.740684 -0.493786,0 -0.888813,0.148138 -1.185084,0.444413 -0.197523,0.296271 -0.345665,0.54316 -0.444413,0.740684 l -0.592546,6.814263 -15.165501,-9.608675 -16.387458,0.610843 v 2.627969 c 0,0.888818 -0.543173,1.333226 -1.629501,1.333226 h -7.851222 c -1.086329,0 -1.629497,-0.444408 -1.629497,-1.333226 v -2.754015 h -4.592224 v 2.754015 c 0,1.086341 -0.592542,1.629501 -1.777639,1.629501 h -3.125271 l -3.208657,6.814276 h 13.592604 c 1.876398,0 2.814597,0.246885 2.814597,0.740671 0,0.197515 -0.345657,0.839444 -1.036954,1.925772 -0.691302,1.086334 -1.580128,2.320804 -2.666456,3.703414 -0.691302,0.88881 -2.07391,1.33322 -4.147819,1.33322 H 16.492047 c -0.592546,0 -0.888826,-0.24689 -0.888826,-0.74068 0,-0.6913 0.345645,-1.28385 1.036955,-1.77763 l 5.481041,-4.295954 c 0.493783,-0.395031 1.036955,-0.641916 1.629497,-0.740684 0.691302,-0.09875 1.431986,-0.148129 2.222043,-0.148129 H 38.65557 l 3.476037,-6.814276 h -3.567266 c -1.086329,0 -1.629497,-0.54316 -1.629497,-1.629501 v -2.627969 l -4.444087,-0.189075 v 2.817044 c 0,0.395031 -0.197523,0.790058 -0.59255,1.185097 -0.296271,0.296271 -0.64192,0.444404 -1.036947,0.444404 h -8.147501 c -0.39503,0 -0.790057,-0.148133 -1.185088,-0.444404 -0.296271,-0.395039 -0.444413,-0.790066 -0.444413,-1.185097 v -3.478792 l -4.8302,0.538507 c -0.01585,-0.262389 -0.05831,-3.577706 -0.05831,-3.577706 0,-2.17267 0.69131,-3.505896 2.073902,-3.999682 1.382599,-0.493787 2.567696,-0.790058 3.555277,-0.888817 4.937877,-0.296271 9.925131,-0.444409 14.961768,-0.444409 v -5.925449 h 6.666125 l 0.148142,-1.481364 C 43.107174,69.47478 42.564006,69.425408 41.97146,69.425408 H 40.045692 36.786694 V 68.981 c 0,-0.987575 0.246889,-1.925772 0.740676,-2.814589 0.493786,-0.987575 1.333225,-1.481364 2.518322,-1.481364 1.678871,0 3.802154,0.641924 6.369854,1.925772 2.567696,1.283848 5.08601,2.765211 7.554947,4.444089 0.197515,0.197515 0.493786,0.543166 0.888825,1.036952 0.493787,0.39503 0.740676,0.987576 0.740676,1.777636 v 0.148137 c -0.888817,-0.39503 -2.172661,-0.888819 -3.85154,-1.481364 -1.580127,-0.691302 -3.160243,-1.333226 -4.740366,-1.925771 l -0.296332,1.333226 c 1.580115,0.592545 3.209612,1.283848 4.888495,2.073909 1.678871,0.691302 3.012097,1.283846 3.999678,1.777634 v 1.18509 c 3.061482,0 5.629183,0.148138 7.703084,0.444409 2.07391,0.296275 4.049064,0.888817 5.92545,1.77763 1.975154,0.888825 4.246579,2.123296 6.814275,3.703411 l 3.048449,1.931457 -15.195563,0.546713 v -3.070712 c 0,-1.185089 -0.543168,-1.777639 -1.629497,-1.777639 h -7.851221 c -1.086329,0 -1.629497,0.59255 -1.629497,1.777639 v 2.944666 l -4.592224,-0.12605 v -2.818616 c 0,-1.086333 -0.592546,-1.629501 -1.777639,-1.629501 h -7.851222 c -1.086328,0 -1.629501,0.543168 -1.629501,1.629501 v 2.944666 l -4.444066,-0.12605 v -2.670479 c 0,-0.493794 -0.197523,-0.888821 -0.59255,-1.185092 -0.296271,-0.395031 -0.64192,-0.592546 -1.036947,-0.592546 h -8.147501 c -0.39503,0 -0.790057,0.197515 -1.185088,0.592546 -0.296271,0.296271 -0.444413,0.691298 -0.444413,1.185092 v 2.891062 l -4.8302,0.538507 c 0.01922,0.584906 0.08986,2.458967 0.08986,3.088427 0.09885,1.283844 0.14815,2.222043 0.14815,2.814585 0,0.395027 0.197516,0.790058 0.592542,1.185097 0.395031,0.296271 0.790058,0.641916 1.185081,1.036946 -0.395023,0.09876 -0.79005,0.29628 -1.185081,0.592551 -0.395026,0.296271 -0.839439,0.641916 -1.333234,1.036946 -0.493778,0.29628 -1.678874,1.234471 -3.555269,2.814594 -1.77763,1.580113 -3.8515316,3.308373 -6.2217123,5.184773 -2.2714251,1.87639 -4.3453469,3.55526 -6.22173301,5.03663 -1.77763049,1.48136 -2.91334909,2.37018 -3.40712739,2.66646 -1.975154,-0.19753 -3.8515482,-0.29628 -5.6291868,-0.29628 -1.7776305,-0.0988 -3.9009175,-0.14814 -6.3698545,-0.14814 -0.790069,0 -1.431993,0.29627 -1.925772,0.88882 -0.493794,0.49379 -0.740692,1.08634 -0.740692,1.77764 z"
         style="font-style:normal;font-weight:normal;font-size:medium;line-height:1.25;font-family:sans-serif;letter-spacing:0px;word-spacing:0px;fill:none;fill-opacity:1;stroke:#000000;stroke-width:1.33392477;stroke-miterlimit:4;stroke-dasharray:none" />
      <path
         sodipodi:nodetypes="ccscccsccscscsccscsssccccscsscscccccsc"
         inkscape:connector-curvature="0"
         id="path933"
         d="m 147.7151,-41.290827 -4.65314,-5.846254 h 12.7663 c 4.21567,0 7.75524,1.789668 10.61871,5.369 2.86346,3.579344 4.85199,8.988127 5.96555,16.226344 3.49981,0.159082 6.28374,1.352193 8.3518,3.579336 2.06807,2.227144 3.1021,5.011074 3.1021,8.351791 v 12.6469965 h -13.7208 c 0.0795,0.31816231 0.11931,0.75563935 0.11931,1.31242379 0,2.86346931 -1.03404,5.36900951 -3.1021,7.51661361 -2.06806,2.0680558 -4.57359,3.1020891 -7.51661,3.1020891 -2.943,0 -5.44854,-1.0340333 -7.51661,-3.1020891 -2.06805,-2.0680635 -3.10208,-4.5736037 -3.10208,-7.51661361 V -0.9636135 H 83.644934 c 0.07954,0.31816231 0.119315,0.75563935 0.119315,1.31242379 0,2.86346931 -1.034036,5.36900951 -3.102099,7.51661361 -2.068063,2.0680558 -4.573596,3.1020891 -7.516606,3.1020891 -2.943018,0 -5.44855,-1.0340333 -7.516614,-3.1020891 C 63.560868,5.7973604 62.526837,3.2918202 62.526837,0.34881029 V -0.9636135 H 44.152899 V -9.673335 H 31.26728 v -40.685152 c 0,-4.613369 0.914722,-8.073398 2.74416,-10.380082 1.90898,-2.306689 5.011074,-3.460029 9.306279,-3.460029 h 89.364161 c 3.97704,0 6.68143,0.83518 8.11316,2.505541 1.51128,1.670353 2.26692,5.011074 2.26692,10.022144 v 4.533832 l 4.65314,5.846254 v 15.391156 h 16.58426 c -0.31816,-4.533832 -1.39196,-8.23248 -3.22141,-11.095951 -1.82943,-2.863476 -4.09634,-4.295205 -6.80073,-4.295205 h -6.56212"
         style="font-style:normal;font-weight:normal;font-size:medium;line-height:1.25;font-family:sans-serif;letter-spacing:0px;word-spacing:0px;fill:none;fill-opacity:1;stroke:#000000;stroke-width:1.07436407;stroke-miterlimit:4;stroke-dasharray:none" />
      <path
         id="path1744"
         style="vector-effect:none;fill:none;fill-opacity:1;stroke:#000000;stroke-width:1.4571799;stroke-linecap:butt;stroke-linejoin:miter;stroke-miterlimit:4;stroke-dasharray:none;stroke-dashoffset:0;stroke-opacity:1"
         d="m 359.43668,106.41039 4.05957,-0.50542 0.72713,-2.83197 -3.31394,-2.39862 -3.45055,-1.878275 0.66056,-3.462759 3.89967,-0.476141 3.96422,-1.010242 0.36646,-2.900771 -3.58844,-1.96436 -3.65875,-1.430994 0.22135,-3.518245 3.80925,-0.961145 3.80634,-1.499123 v -2.923826 l -3.80634,-1.499119 -3.80925,-0.961145 -0.22135,-3.518248 3.65875,-1.430992 3.58844,-1.964363 -0.36646,-2.90077 -3.96422,-1.01024 -3.89967,-0.476142 -0.66056,-3.462758 3.45055,-1.878271 3.31394,-2.398624 -0.72713,-2.831969 -4.05957,-0.505423 -3.9286,0.01637 -1.08935,-3.352666 3.18793,-2.295927 2.98718,-2.795056 -1.07633,-2.718504 -4.09091,0.0074 -3.89557,0.508625 -1.50096,-3.189699 2.87504,-2.677375 2.61331,-3.14741 -1.40856,-2.562166 -4.05773,0.520028 -3.8011,0.992859 -1.8889,-2.976423 2.51679,-3.016612 2.19824,-3.450124 -1.71859,-2.365422 -3.96055,1.024494 -3.64669,1.461442 -2.24705,-2.716224 2.11887,-3.308245 1.74849,-3.698433 -2.0015,-2.131383 -3.80092,1.512807 -3.43478,1.906964 -2.56976,-2.413166 1.68754,-3.5477343 1.27115,-3.8884089 -2.25284,-1.8637185 -3.58135,1.9772591 -3.16868,2.3224203 -2.85195,-2.0720605 1.22958,-3.7312613 0.77379,-4.0170717 -2.46868,-1.5666631 -3.30528,2.4105283 -2.85262,2.7012479 -3.08916,-1.69828051 0.75223,-3.85594139 0.26422,-4.0823727 -2.64556,-1.2449107 -2.97711,2.8057826 -2.49157,3.0374808 -3.27765,-1.2977185 0.26302,-3.919816 -0.24953,-4.0833029 -2.78072,-0.903513 -2.60197,3.156796 -2.09123,3.3257943 -3.41445,-0.8766739 -0.23034,-3.9218844 -0.75933,-4.019827 -2.87204,-0.54787 -2.18581,3.458017 -1.65789,3.5616696 -3.49741,-0.4418239 -0.72006,-3.8620817 -1.25716,-3.892961 -2.91806,-0.183588 -1.73517,3.704699 -1.19843,3.741385 h -3.52521 l -1.19843,-3.741385 -1.73516,-3.704699 -2.91806,0.183588 -1.25717,3.892961 -0.72005,3.8620817 -3.49741,0.4418239 -1.6579,-3.5616696 -2.18581,-3.458017 -2.87204,0.54787 -0.75933,4.019827 -0.23033,3.9218844 -3.41446,0.8766739 -2.09122,-3.3257943 -2.60198,-3.156796 -2.78072,0.903513 -0.24952,4.0833029 0.26301,3.919816 -3.27765,1.2977185 -2.49156,-3.0374808 -2.97711,-2.8057826 -2.64556,1.2449107 0.26422,4.0823727 0.75223,3.85594139 -3.08916,1.69828051 -2.85262,-2.7012479 -3.30529,-2.4105283 -2.46867,1.5666631 0.77379,4.0170717 1.22957,3.7312613 -2.85195,2.0720605 -3.16868,-2.3224203 -3.58134,-1.9772591 -2.25285,1.8637185 1.27116,3.8884089 1.68753,3.5477343 -2.56976,2.413166 -3.43477,-1.906964 -3.80092,-1.512807 -2.0015,2.131383 1.74848,3.698433 2.11888,3.308245 -2.24706,2.716224 -3.64669,-1.461442 -3.96055,-1.024494 -1.71858,2.365422 2.19823,3.450124 2.5168,3.016612 -1.8889,2.976423 -3.8011,-0.992859 -4.05773,-0.520028 -1.40857,2.562166 2.61332,3.14741 2.87503,2.677375 -1.50096,3.189699 -3.89557,-0.508625 -4.09091,-0.0074 -1.07633,2.718504 2.98719,2.795056 3.18792,2.295927 -1.08935,3.352666 -3.92859,-0.01637 -4.05958,0.505423 -0.72712,2.831969 3.31393,2.398624 3.45055,1.878271 -0.66056,3.462758 -3.89967,0.476142 -3.96421,1.01024 -0.36646,2.90077 3.58844,1.964363 3.65874,1.430992 -0.22134,3.518248 -3.80925,0.961145 -3.80634,1.499119 v 2.923826 l 3.80634,1.499123 3.80925,0.961145 0.22134,3.518245 -3.65874,1.430994 -3.58844,1.96436 0.36646,2.900771 3.96421,1.010242 3.89967,0.476141 0.66056,3.462759 -3.45055,1.878275 -3.31393,2.39862 0.72712,2.83197 4.05958,0.50542 3.92859,-0.0163 1.08935,3.35267 -3.18792,2.29593 -2.98719,2.79505 1.07633,2.71851 4.09091,-0.007 3.89557,-0.50862 1.50096,3.1897 -2.87503,2.67737 -2.61332,3.14741 1.40857,2.56217 4.05773,-0.52003 3.8011,-0.99286 1.8889,2.97643 -2.5168,3.0166 -2.19823,3.45013 1.71858,2.36542 3.96055,-1.0245 3.64669,-1.46143 2.24706,2.71621 -2.11888,3.30826 -1.74848,3.69843 2.0015,2.13138 3.80092,-1.51281 3.43477,-1.90696 2.56976,2.41317 -1.68753,3.54773 -1.27116,3.88841 2.25285,1.86371 3.58134,-1.97726 3.16868,-2.32241 2.85195,2.07206 -1.22957,3.73126 -0.77379,4.01707 2.46867,1.56666 3.30529,-2.41053 2.85262,-2.70124 3.08916,1.69828 -0.75223,3.85594 -0.26422,4.08238 2.64556,1.2449 2.97711,-2.80578 2.49156,-3.03748 3.27765,1.29771 -0.26301,3.91982 0.24952,4.0833 2.78072,0.90352 2.60198,-3.1568 2.09122,-3.32579 3.41446,0.87668 0.23033,3.92187 0.75933,4.01983 2.87204,0.54787 2.18581,-3.45801 1.6579,-3.56167 3.49741,0.44182 0.72005,3.86208 1.25717,3.89296 2.91806,0.18359 1.73516,-3.7047 1.19843,-3.74138 h 3.52521 l 1.19843,3.74138 1.73517,3.7047 2.91806,-0.18359 1.25716,-3.89296 0.72006,-3.86208 3.49741,-0.44182 1.65789,3.56167 2.18581,3.45801 2.87204,-0.54787 0.75933,-4.01983 0.23034,-3.92187 3.41445,-0.87668 2.09123,3.32579 2.60197,3.1568 2.78072,-0.90352 0.24953,-4.0833 -0.26302,-3.91982 3.27765,-1.29771 2.49157,3.03748 2.97711,2.80578 2.64556,-1.2449 -0.26422,-4.08238 -0.75223,-3.85594 3.08916,-1.69828 2.85262,2.70124 3.30528,2.41053 2.46868,-1.56666 -0.77379,-4.01707 -1.22958,-3.73126 2.85195,-2.07206 3.16868,2.32241 3.58135,1.97726 2.25284,-1.86371 -1.27115,-3.88841 -1.68754,-3.54773 2.56976,-2.41317 3.43478,1.90696 3.80092,1.51281 2.0015,-2.13138 -1.74849,-3.69843 -2.11887,-3.30826 2.24705,-2.71621 3.64669,1.46143 3.96055,1.0245 1.71859,-2.36542 -2.19824,-3.45013 -2.51679,-3.0166 1.8889,-2.97643 3.8011,0.99286 4.05773,0.52003 1.40856,-2.56217 -2.61331,-3.14741 -2.87504,-2.67737 1.50096,-3.1897 3.89557,0.50862 4.09091,0.007 1.07633,-2.71851 -2.98718,-2.79505 -3.18793,-2.29593 1.08935,-3.35267 3.9286,0.0163 2.2276,1.01594 -4.22198,0.37633 -0.81643,2.51266 3.19447,2.78608 2.10947,1.05415 1.47277,0.33044 -0.68093,4.29922 -1.5028,-0.14084 -2.33198,0.35069 -3.89906,1.66257 v 2.64198 l 3.89906,1.66257 2.33198,0.35068 1.5028,-0.14084 0.68093,4.29923 -1.47277,0.33044 -2.10947,1.05414 -3.19447,2.78608 0.81643,2.51266 4.22198,0.37633 2.3262,-0.3871 1.38573,-0.59834 1.97614,3.87839 -1.29857,0.76938 -1.68049,1.65441 -2.17717,3.63686 1.55292,2.1374 4.13164,-0.94676 2.09273,-1.08699 1.13301,-0.99727 3.07791,3.07791 -0.99727,1.13301 -1.08699,2.09273 -0.94676,4.13165 2.1374,1.55291 3.63686,-2.17717 1.65441,-1.68049 0.76939,-1.29857 3.87838,1.97614 -0.59834,1.38573 -0.3871,2.3262 0.37633,4.22199 2.51266,0.81642 2.78608,-3.19446 1.05414,-2.10948 0.33045,-1.47277 4.29922,0.68093 -0.14084,1.5028 0.35069,2.33198 1.66257,3.89906 h 2.64197 l 1.66257,-3.89906 0.35069,-2.33198 -0.14084,-1.5028 4.29922,-0.68093 0.33045,1.47277 1.05414,2.10948 2.78608,3.19446 2.51266,-0.81642 0.37633,-4.22199 -0.3871,-2.3262 -0.59834,-1.38573 3.87838,-1.97614 0.76939,1.29857 1.65441,1.68049 3.63684,2.17717 2.13743,-1.55291 -0.94676,-4.13165 -1.087,-2.09273 -0.99727,-1.13301 3.07792,-3.07791 1.13301,0.99727 2.09273,1.08699 4.13164,0.94676 1.55291,-2.1374 -2.17718,-3.63686 -1.68047,-1.65441 -1.29858,-0.76938 1.97613,-3.87839 1.38575,0.59834 2.3262,0.3871 4.22199,-0.37633 0.81642,-2.51266 -3.19448,-2.78608 -2.10947,-1.05414 -1.47276,-0.33044 0.68093,-4.29923 1.50279,0.14084 2.33197,-0.35068 3.89907,-1.66257 v -2.64198 l -3.89907,-1.66257 -2.33197,-0.35069 -1.50279,0.14084 -0.68093,-4.29922 1.47276,-0.33044 2.10947,-1.05415 3.19448,-2.78608 -0.81642,-2.51266 -4.22199,-0.37633 -2.3262,0.3871 -1.38575,0.59834 -1.97613,-3.87838 1.29858,-0.76939 1.68047,-1.65441 2.17718,-3.636854 -1.55291,-2.137406 -4.13164,0.946762 -2.09273,1.086995 -1.13301,0.997265 -3.07792,-3.077909 0.99727,-1.133012 1.087,-2.09273 0.94676,-4.131644 -2.13743,-1.552911 -3.63684,2.177168 -1.65441,1.680484 -0.76939,1.298576 -3.87838,-1.976141 0.59834,-1.385729 0.3871,-2.326204 -0.37633,-4.221984 -2.51266,-0.816424 -2.78608,3.194465 -1.05414,2.109474 -0.33045,1.472772 -4.29922,-0.680931 0.14084,-1.502801 -0.35069,-2.331983 -1.66257,-3.899052 h -2.64197 l -1.66257,3.899052 -0.35069,2.331983 0.14084,1.502801 -4.29922,0.680931 -0.33045,-1.472772 -1.05414,-2.109474 -2.78608,-3.194465 -2.51266,0.816424 -0.37633,4.221984 0.3871,2.326204 0.59834,1.385729 -3.87838,1.976141 -0.76939,-1.298576 -1.65441,-1.680484 -3.63686,-2.177168 -2.1374,1.552911 0.94676,4.131644 1.08699,2.09273 0.99727,1.133012 -3.07791,3.077909 -1.13301,-0.997265 -2.09273,-1.086995 -4.13164,-0.946762 -1.55292,2.137406 2.17717,3.636854 1.68049,1.65441 1.29857,0.76939 -1.97614,3.87838 -1.38573,-0.59834 -2.3262,-0.3871 z"
         inkscape:connector-curvature="0"
         sodipodi:nodetypes="ccccccccccccccccccccccccccccccccccccccccccccccccccccccccccccccccccccccccccccccccccccccccccccccccccccccccccccccccccccccccccccccccccccccccccccccccccccccccccccccccccccccccccccccccccccccccccccccccccccccccccccccccccccccccccccccccccccccccccccccccccccccccccccccccccccccccccccccccccccccccccccccccccccccccccccccccccccccccccccccccccccccccccccccccccccccccccccccccccccccccccccccccccccccccccccccccccccccccccccccccccccccccccccccccccccccccccccccccccccccccccccccccccccccccccccccc" />
    </g>
  </g>
</svg>
