<?xml version="1.0" encoding="UTF-8" standalone="no"?>
<!-- Created with Inkscape (http://www.inkscape.org/) -->

<svg
   xmlns:dc="http://purl.org/dc/elements/1.1/"
   xmlns:cc="http://creativecommons.org/ns#"
   xmlns:rdf="http://www.w3.org/1999/02/22-rdf-syntax-ns#"
   xmlns:svg="http://www.w3.org/2000/svg"
   xmlns="http://www.w3.org/2000/svg"
   xmlns:sodipodi="http://sodipodi.sourceforge.net/DTD/sodipodi-0.dtd"
   xmlns:inkscape="http://www.inkscape.org/namespaces/inkscape"
   sodipodi:docname="text morphing.svg"
   inkscape:version="0.92.3 (2405546, 2018-03-11)"
   id="svg862"
   version="1.1"
   viewBox="0 0 210 297"
   height="297mm"
   width="210mm">
  <sodipodi:namedview
     inkscape:window-maximized="1"
     inkscape:window-y="0"
     inkscape:window-x="0"
     inkscape:window-height="1026"
     inkscape:window-width="1920"
     showgrid="false"
     inkscape:current-layer="layer3"
     inkscape:document-units="mm"
     inkscape:cy="728.95698"
     inkscape:cx="332.4826"
     inkscape:zoom="0.98994949"
     inkscape:pageshadow="2"
     inkscape:pageopacity="0.0"
     borderopacity="1.0"
     bordercolor="#666666"
     pagecolor="#ffffff"
     id="base"
     inkscape:snap-global="true" />
  <defs
     id="defs856">
    <inkscape:path-effect
       effect="roughen"
       id="path-effect9871"
       is_visible="true"
       method="segments"
       max_segment_size="10"
       segments="2"
       displace_x="10;1"
       displace_y="10;1"
       global_randomize="1;1"
       handles="along"
       shift_nodes="true"
       fixed_displacement="false"
       spray_tool_friendly="false" />
    <inkscape:path-effect
       effect="rough_hatches"
       id="path-effect9869"
       is_visible="true"
       direction="108.86078,-9.4436801 , 36.781338,0"
       dist_rdm="15;1"
       growth="0"
       do_bend="true"
       bender="108.86078,-4.4436801 , 5,0"
       bottom_edge_variation="0.1;1"
       top_edge_variation="0.4;1"
       bottom_tgt_variation="0;1"
       top_tgt_variation="0;1"
       scale_bf="1"
       scale_bb="1"
       scale_tf="1"
       scale_tb="1"
       top_smth_variation="0;1"
       bottom_smth_variation="1.6;1"
       fat_output="true"
       stroke_width_top="1.6"
       stroke_width_bottom="1"
       front_thickness="0.7"
       back_thickness="0.25" />
    <inkscape:path-effect
       effect="fill_between_strokes"
       id="path-effect9865"
       is_visible="true"
       linkedpath=""
       secondpath=""
       reversesecond="false" />
    <inkscape:path-effect
       effect="fill_between_many"
       id="path-effect9863"
       is_visible="true"
       linkedpaths=""
       allow_transforms="false" />
    <inkscape:path-effect
       effect="envelope"
       id="path-effect9861"
       is_visible="true"
       yy="true"
       xx="true"
       bendpath1="M 35.2981,-11.448595 H 182.42345"
       bendpath2="M 182.42345,-11.448595 V 2.5612348"
       bendpath3="M 35.2981,2.5612348 H 182.42345"
       bendpath4="M 35.2981,-11.448595 V 2.5612348" />
    <inkscape:path-effect
       effect="ellipse_5pts"
       id="path-effect9859"
       is_visible="true" />
    <inkscape:path-effect
       effect="clone_original"
       id="path-effect9855"
       is_visible="true"
       linkedpath="" />
    <inkscape:path-effect
       effect="bspline"
       id="path-effect9851"
       is_visible="true"
       weight="45"
       steps="1"
       helper_size="1"
       apply_no_weight="true"
       apply_with_weight="true"
       only_selected="false" />
    <inkscape:path-effect
       effect="bounding_box"
       id="path-effect9849"
       is_visible="true"
       linkedpath=""
       visualbounds="false" />
    <inkscape:path-effect
       effect="bend_path"
       id="path-effect9847"
       is_visible="true"
       bendpath="m 35.2981,18.612867 c 89.84304,-56.377257 64.252318,41.588645 147.12535,0"
       prop_scale="1"
       scale_y_rel="false"
       vertical="false"
       bendpath-nodetypes="cc" />
    <inkscape:path-effect
       effect="attach_path"
       id="path-effect9845" />
    <inkscape:path-effect
       effect="vonkoch"
       id="path-effect9843"
       is_visible="true"
       ref_path="M 35.2981,18.612867 H 182.42345"
       generator="m 35.2981,25.617782 h 49.041783 m 49.041787,0 h 49.04178"
       similar_only="false"
       nbgenerations="1"
       drawall="true"
       maxComplexity="1000" />
    <inkscape:path-effect
       effect="transform_2pts"
       start="35.9,18.612867"
       end="182.42345,18.612867"
       id="path-effect9841"
       is_visible="true"
       first_knot="1"
       last_knot="2"
       helper_size="10"
       stretch="1.02"
       offset="4"
       elastic="true"
       from_original_width="true"
       flip_vertical="false"
       flip_horizontal="true"
       lock_lenght="false"
       lock_angle="true" />
    <inkscape:path-effect
       effect="curvestitching"
       id="path-effect6134"
       is_visible="true"
       count="5"
       startpoint_edge_variation="0;1"
       startpoint_spacing_variation="0;1"
       endpoint_edge_variation="0;1"
       endpoint_spacing_variation="0;1"
       strokepath="M 35.2981,18.612867 H 182.42345"
       prop_scale="1"
       scale_y_rel="false" />
    <inkscape:path-effect
       effect="spiro"
       id="path-effect6132"
       is_visible="true" />
    <inkscape:path-effect
       effect="knot"
       id="path-effect6130"
       is_visible="true"
       interruption_width="3"
       prop_to_stroke_width="true"
       add_stroke_width="true"
       add_other_stroke_width="true"
       switcher_size="15"
       crossing_points_vector="" />
    <pattern
       patternUnits="userSpaceOnUse"
       width="41.427632"
       height="40.424109"
       patternTransform="matrix(0.26458333,0,0,0.26458333,72.461946,70.453282)"
       id="pattern1181">
      <path
         inkscape:connector-curvature="0"
         id="path1179"
         d="M 0.13195633,40.288833 41.295675,0.13527601"
         style="opacity:1;vector-effect:none;fill:none;fill-opacity:1;stroke:#ff00f0;stroke-width:0.37795275;stroke-linecap:butt;stroke-linejoin:miter;stroke-miterlimit:4;stroke-dasharray:none;stroke-dashoffset:0;stroke-opacity:1" />
    </pattern>
    <pattern
       patternUnits="userSpaceOnUse"
       width="127.96196"
       height="92.978271"
       patternTransform="matrix(0.26458333,0,0,0.26458333,36.325151,-7.1585755)"
       id="pattern1935">
      <path
         inkscape:connector-curvature="0"
         id="path1933"
         d="M 1.0989869,91.440924 126.86297,1.5373467"
         style="opacity:1;vector-effect:none;fill:#ff8080;fill-opacity:1;stroke:#ff8080;stroke-width:3.77952766;stroke-linecap:butt;stroke-linejoin:miter;stroke-miterlimit:4;stroke-dasharray:none;stroke-dashoffset:0;stroke-opacity:1" />
    </pattern>
    <pattern
       patternUnits="userSpaceOnUse"
       width="106.5168"
       height="92.763382"
       patternTransform="matrix(0.26458333,0,0,0.26458333,72.904944,11.712353)"
       id="pattern1946">
      <path
         inkscape:connector-curvature="0"
         id="path1944"
         d="M 1.2355486,91.333477 105.28126,1.4299045"
         style="opacity:1;vector-effect:none;fill:none;fill-opacity:1;stroke:#ff2a2a;stroke-width:3.77952766;stroke-linecap:butt;stroke-linejoin:miter;stroke-miterlimit:4;stroke-dasharray:none;stroke-dashoffset:0;stroke-opacity:1" />
    </pattern>
  </defs>
  <metadata
     id="metadata859">
    <rdf:RDF>
      <cc:Work
         rdf:about="">
        <dc:format>image/svg+xml</dc:format>
        <dc:type
           rdf:resource="http://purl.org/dc/dcmitype/StillImage" />
        <dc:title></dc:title>
      </cc:Work>
    </rdf:RDF>
  </metadata>
  <g
     inkscape:groupmode="layer"
     id="layer3"
     inkscape:label="Layer 3"
     style="display:inline">
    <g
       id="g109">
      <path
         d="m 212.93083,59.335123 c -3.14551,0 -5.608,-0.916693 -7.38747,-2.750078 -1.77047,-1.842373 -2.65571,-4.40372 -2.65571,-7.684042 0,-3.289309 0.88524,-5.850657 2.65571,-7.684042 1.77947,-1.842372 4.24196,-2.763558 7.38747,-2.763558 1.31213,0 2.55685,0.161769 3.73417,0.485308 1.18631,0.323538 2.27826,0.799858 3.27583,1.428961 v 2.898368 c -1.00657,-0.853783 -2.07604,-1.496367 -3.20842,-1.927752 -1.13239,-0.431385 -2.3232,-0.647077 -3.57241,-0.647077 -2.46249,0 -4.31385,0.68752 -5.55408,2.062559 -1.23124,1.375039 -1.84686,3.424116 -1.84686,6.147233 0,2.714129 0.61562,4.758714 1.84686,6.133753 1.24023,1.375039 3.09159,2.062558 5.55408,2.062558 0.96163,0 1.81991,-0.08088 2.57483,-0.242653 0.75492,-0.170757 1.43345,-0.431385 2.03559,-0.781886 v -5.405791 h -4.44865 v -2.237808 h 7.14481 v 8.641177 c -1.0515,0.745937 -2.21085,1.312129 -3.47805,1.698578 -1.26719,0.377461 -2.61975,0.566192 -4.0577,0.566192 m -22.56681,-0.390942 -7.68405,-20.126797 h 2.84445 l 6.3764,16.945333 6.38989,-16.945333 h 2.83096 l -7.67056,20.126797 h -3.08709 m -17.14757,0.390942 c -0.95263,0 -1.96818,-0.107846 -3.04665,-0.323539 -1.06947,-0.215693 -2.17939,-0.534738 -3.32974,-0.957135 v -2.804001 c 1.10541,0.620116 2.18836,1.08745 3.24885,1.402001 1.06049,0.314551 2.10301,0.471827 3.12754,0.471827 1.55479,0 2.75458,-0.305564 3.59937,-0.916692 0.84479,-0.611129 1.26719,-1.482886 1.26719,-2.615271 0,-0.98859 -0.30556,-1.761488 -0.91668,-2.318693 -0.60215,-0.557205 -1.59523,-0.97511 -2.97925,-1.253713 l -1.65814,-0.323538 c -2.03111,-0.404423 -3.50051,-1.03802 -4.40822,-1.900789 -0.90771,-0.862769 -1.36156,-2.062558 -1.36156,-3.599367 0,-1.779463 0.62461,-3.181463 1.87383,-4.206001 1.25821,-1.024539 2.98824,-1.536809 5.19011,-1.536809 0.94365,0 1.90527,0.08538 2.88487,0.256135 0.97961,0.170756 1.98169,0.426891 3.00622,0.768404 v 2.655713 c -1.03352,-0.494295 -2.00863,-0.86277 -2.92532,-1.105425 -0.91669,-0.242653 -1.80193,-0.36398 -2.65572,-0.36398 -1.48289,0 -2.62875,0.28759 -3.43759,0.862769 -0.79987,0.57518 -1.1998,1.393014 -1.1998,2.453501 0,0.889731 0.26512,1.56377 0.79537,2.022117 0.53923,0.449359 1.55478,0.81334 3.04665,1.091942 l 1.64466,0.33702 c 2.03111,0.386449 3.52747,1.069475 4.48909,2.049078 0.97061,0.970616 1.45592,2.273758 1.45592,3.909425 0,1.950219 -0.65606,3.42861 -1.96819,4.435175 -1.30313,1.006564 -3.2174,1.509846 -5.74281,1.509846 m -23.7666,-0.390942 V 45.773463 h -2.37262 v -1.92775 h 2.37262 v -1.0515 c 0,-1.680604 0.39094,-2.902861 1.17283,-3.666771 0.78188,-0.772898 2.02211,-1.159347 3.72069,-1.159347 h 2.34566 v 2.062558 h -2.37262 c -0.88973,0 -1.50984,0.179744 -1.86035,0.539231 -0.34151,0.359488 -0.51227,1.006565 -0.51227,1.941232 v 1.334597 h 4.08467 v 1.92775 h -4.08467 v 13.170718 h -2.49394 m -11.4317,-1.712059 c 1.32113,0 2.36814,-0.521257 3.14103,-1.56377 0.7729,-1.042513 1.15935,-2.462488 1.15935,-4.259924 0,-1.78845 -0.38645,-3.203931 -1.15935,-4.246444 -0.77289,-1.051501 -1.8199,-1.577251 -3.14103,-1.577251 -1.33009,0 -2.38159,0.521257 -3.15449,1.56377 -0.7729,1.033525 -1.15935,2.4535 -1.15935,4.259925 0,1.806423 0.38196,3.230892 1.14587,4.273405 0.7729,1.033526 1.82889,1.550289 3.16797,1.550289 m 0,2.103001 c -2.1659,0 -3.86448,-0.701 -5.09573,-2.103001 -1.22225,-1.410988 -1.83338,-3.352219 -1.83338,-5.823694 0,-2.480463 0.61113,-4.421694 1.83338,-5.823695 1.23125,-1.402001 2.92983,-2.103002 5.09573,-2.103002 2.15693,0 3.85102,0.701001 5.08227,2.103002 1.23124,1.402001 1.84686,3.343232 1.84686,5.823695 0,2.471475 -0.61562,4.412706 -1.84686,5.823694 -1.23125,1.402001 -2.92534,2.103001 -5.08227,2.103001 M -3.9209202,58.944181 v -2.291732 c 1.0335264,-1.069475 2.4400205,-2.50293 4.21948227,-4.300367 C 2.0870118,50.545658 3.21041,49.381817 3.6687565,48.86056 c 0.8717567,-0.979603 1.4783916,-1.806423 1.8199047,-2.480461 0.3504995,-0.683026 0.5257493,-1.352571 0.5257493,-2.008636 0,-1.069475 -0.3774617,-1.941231 -1.132385,-2.61527 -0.7459361,-0.674039 -1.7210454,-1.011059 -2.925328,-1.011059 -0.8537823,0 -1.75699399,0.148289 -2.7096352,0.444866 -0.9436547,0.296577 -1.9547131,0.745936 -3.033175,1.348077 V 39.788 c 1.0964364,-0.440372 2.1209752,-0.772898 3.07361646,-0.997578 0.95264198,-0.224679 1.82439874,-0.337019 2.61527034,-0.337019 2.0850265,0 3.7476556,0.521257 4.9878872,1.56377 1.2402316,1.042513 1.8603474,2.435527 1.8603474,4.17904 0,0.826821 -0.1572757,1.613199 -0.471827,2.359136 -0.3055649,0.736949 -0.8672639,1.608705 -1.6850972,2.61527 -0.2246797,0.260628 -0.9391608,1.015551 -2.1434433,2.26477 -1.2042826,1.240231 -2.9028603,2.979251 -5.0957331,5.21706 h 9.5039464 v 2.291732 H -3.9209202 M 28.392496,48.86056 c 0,-2.696155 -0.647077,-4.668841 -1.941231,-5.918059 -1.285167,-1.258206 -3.31627,-1.887309 -6.093309,-1.887309 h -3.289309 v 15.651181 h 3.289309 c 2.777039,0 4.808142,-0.629103 6.093309,-1.88731 1.294154,-1.258205 1.941231,-3.244373 1.941231,-5.958503 m 2.871406,0 c 0,3.469053 -0.916693,6.01692 -2.750078,7.643601 -1.833385,1.62668 -4.69131,2.44002 -8.573773,2.44002 H 14.345529 V 38.817384 h 5.594522 c 3.900437,0 6.762855,0.81334 8.587254,2.44002 1.824398,1.617693 2.736597,4.152078 2.736597,7.603156 M 55.340565,41.473096 51.053678,58.944182 H 47.629562 L 42.587751,38.817383 h 2.750078 l 4.232964,17.01274 4.219484,-17.01274 h 3.060135 l 4.232963,17.01274 4.219484,-17.01274 h 2.763558 L 63.011126,58.944182 H 59.587009 L 55.340565,41.473096 m 20.450337,15.759026 c 1.321116,0 2.368123,-0.521257 3.14102,-1.56377 0.772898,-1.042513 1.159347,-2.462488 1.159347,-4.259924 0,-1.78845 -0.386449,-3.203931 -1.159347,-4.246444 -0.772897,-1.051501 -1.819904,-1.577251 -3.14102,-1.577251 -1.330103,0 -2.381603,0.521257 -3.154501,1.56377 -0.772898,1.033525 -1.159347,2.4535 -1.159347,4.259925 0,1.806423 0.381955,3.230892 1.145866,4.273405 0.772898,1.033526 1.828892,1.550289 3.167982,1.550289 m 0,2.103001 c -2.165911,0 -3.864489,-0.701 -5.095732,-2.103001 -1.222257,-1.410988 -1.833386,-3.352219 -1.833386,-5.823694 0,-2.480463 0.611129,-4.421694 1.833386,-5.823695 1.231243,-1.402001 2.929821,-2.103002 5.095732,-2.103002 2.156924,0 3.851008,0.701001 5.082252,2.103002 1.231244,1.402001 1.846866,3.343232 1.846866,5.823695 0,2.471475 -0.615622,4.412706 -1.846866,5.823694 -1.231244,1.402001 -2.925328,2.103001 -5.082252,2.103001 M 86.723811,58.944181 V 43.845713 h 2.493942 v 2.345655 c 0.521257,-0.916693 1.19979,-1.595226 2.035598,-2.035598 0.835808,-0.449359 1.85136,-0.674039 3.046655,-0.674039 0.170757,0 0.359488,0.01348 0.566193,0.04045 0.206705,0.01797 0.435878,0.04943 0.687519,0.09436 l 0.01348,2.547865 c -0.278603,-0.161769 -0.584167,-0.278603 -0.916693,-0.3505 -0.323539,-0.08089 -0.683026,-0.121327 -1.078462,-0.121327 -1.402,0 -2.480462,0.458346 -3.235385,1.375038 -0.745937,0.907706 -1.118906,2.215341 -1.118906,3.922906 v 7.953658 h -2.493941 m 11.472134,0 V 37.968095 h 2.480465 v 20.976086 h -2.480465 m 16.460035,-3.235386 c 0.75492,-1.042513 1.13238,-2.475969 1.13238,-4.300367 0,-1.824398 -0.37746,-3.25336 -1.13238,-4.286887 -0.75493,-1.042513 -1.78845,-1.563769 -3.10058,-1.563769 -1.31213,0 -2.34565,0.521256 -3.10058,1.563769 -0.74593,1.033527 -1.1189,2.462489 -1.1189,4.286887 0,1.824398 0.37297,3.257854 1.1189,4.300367 0.75493,1.033526 1.78845,1.550289 3.10058,1.550289 1.31213,0 2.34565,-0.516763 3.10058,-1.550289 m 2.37261,-17.7407 h 1.24023 v 20.976086 h -2.48046 v -2.26477 c -0.52126,0.898717 -1.18182,1.568262 -1.98167,2.008634 -0.79087,0.431385 -1.74351,0.647078 -2.85792,0.647078 -1.8244,0 -3.31178,-0.727962 -4.46214,-2.183885 -1.14138,-1.455924 -1.71207,-3.370194 -1.71207,-5.74281 0,-2.372617 0.57069,-4.286887 1.71207,-5.742811 1.15036,-1.455924 2.63774,-2.183886 4.46214,-2.183886 1.11441,0 2.06705,0.220186 2.85792,0.660558 0.79985,0.431385 1.46041,1.096437 1.98167,1.995155 v -8.169349 h 1.24023"
         style="font-style:normal;font-weight:normal;font-size:medium;line-height:1.25;font-family:sans-serif;letter-spacing:0px;word-spacing:0px;display:inline;fill:none;fill-opacity:1;stroke:#000000;stroke-width:0.69021565"
         id="path1239"
         inkscape:connector-curvature="0" />
      <path
         d="m 132.37252,133.6923 c 1.19038,0 2.12568,-0.51016 2.80589,-1.53049 0.68023,-1.02032 1.02034,-2.4339 1.02034,-4.24073 0,-2.18945 -0.42514,-3.97501 -1.27542,-5.3567 -0.85027,-1.38169 -1.94499,-2.07254 -3.28416,-2.07254 -1.12661,0 -2.04066,0.45702 -2.74213,1.37106 -0.68021,0.91405 -1.02032,2.12569 -1.02032,3.63492 0,2.27447 0.41451,4.20883 1.24352,5.80309 0.82901,1.59426 1.91311,2.39139 3.25228,2.39139 m -0.38262,0.89279 c -1.99814,0 -3.6668,-0.7121 -5.00597,-2.13631 -1.31792,-1.44546 -1.97688,-3.24166 -1.97688,-5.38859 0,-2.18945 0.64833,-3.97503 1.945,-5.35672 1.31792,-1.40295 3.01846,-2.10442 5.10163,-2.10442 2.04065,0 3.71993,0.68022 5.03785,2.04066 1.31792,1.36043 1.97688,3.08223 1.97688,5.1654 0,2.2107 -0.68021,4.06004 -2.04064,5.54802 -1.36045,1.48797 -3.03974,2.23196 -5.03787,2.23196 m 7.85871,-0.31885 v -0.47828 c 1.14786,-0.0638 1.87059,-0.25511 2.1682,-0.57394 0.31885,-0.34011 0.47827,-1.09473 0.47827,-2.26384 v -10.01195 h -2.61458 v -1.02032 h 2.61458 c 0.0425,-2.38076 0.48893,-4.20885 1.33918,-5.48426 0.85027,-1.29665 2.27447,-1.94498 4.27261,-1.94498 0.95655,0 1.74305,0.19131 2.3595,0.57394 0.63771,0.36135 0.95656,0.829 0.95656,1.40294 0,0.36136 -0.13817,0.66958 -0.41451,0.92466 -0.25508,0.25508 -0.5633,0.38262 -0.92467,0.38262 -0.34011,0 -0.63771,-0.11691 -0.89279,-0.35073 -0.23383,-0.25507 -0.42514,-0.53141 -0.57393,-0.82902 -0.12754,-0.31885 -0.34011,-0.59518 -0.6377,-0.82901 -0.27635,-0.25508 -0.61646,-0.38262 -1.02034,-0.38262 -1.21163,0 -1.81745,0.94593 -1.81745,2.83778 v 3.69868 h 3.92188 v 1.02032 h -3.88999 v 10.01195 c 0,1.19037 0.17005,1.95562 0.51016,2.29573 0.34011,0.31885 1.1585,0.49953 2.45515,0.54205 v 0.47828 h -8.29013 m 28.31552,0.44638 c -1.06284,0 -2.14694,-0.18068 -3.2523,-0.54204 -1.08409,-0.36137 -1.75368,-0.54205 -2.00876,-0.54205 -0.23383,0 -0.43577,0.10629 -0.60582,0.31886 -0.17005,0.19131 -0.26571,0.43575 -0.28697,0.73334 h -0.70147 l -0.95656,-6.75965 h 0.73336 c 0.7865,1.93437 1.70054,3.35858 2.74213,4.27262 1.04159,0.91405 2.27448,1.37107 3.69868,1.37107 1.16911,0 2.11504,-0.32948 2.83778,-0.98845 0.72273,-0.68021 1.08409,-1.55174 1.08409,-2.61458 0,-0.99907 -0.35074,-1.88123 -1.05221,-2.64647 -0.70147,-0.78651 -1.55174,-1.4561 -2.55081,-2.00877 -0.99907,-0.55268 -1.99813,-1.11598 -2.9972,-1.68991 -0.97781,-0.59519 -1.81746,-1.3498 -2.51894,-2.26385 -0.70147,-0.91405 -1.0522,-1.97689 -1.0522,-3.18852 0,-1.61551 0.54205,-2.9228 1.62614,-3.92186 1.10535,-1.02033 2.40202,-1.5305 3.88999,-1.5305 0.89278,0 1.85996,0.18068 2.90154,0.54205 1.04158,0.36136 1.66866,0.54204 1.88123,0.54204 0.55268,0 0.89279,-0.36136 1.02033,-1.08409 h 0.66958 l 0.70148,6.79154 h -0.79713 c -0.51016,-1.87059 -1.29666,-3.25228 -2.3595,-4.14507 -1.04158,-0.89279 -2.20008,-1.33918 -3.47549,-1.33918 -0.97781,0 -1.77494,0.27634 -2.39139,0.82902 -0.61644,0.55268 -0.92466,1.26478 -0.92466,2.1363 0,0.85027 0.36136,1.65803 1.08409,2.42327 0.72274,0.76525 1.92375,1.61552 3.60303,2.55081 2.10442,1.12662 3.62428,2.2426 4.55957,3.34795 0.9353,1.08409 1.40295,2.2851 1.40295,3.60302 0,1.63677 -0.62707,3.01847 -1.88122,4.14508 -1.25415,1.10535 -2.79527,1.65802 -4.62334,1.65802 m 19.65072,-0.0956 -7.84376,-17.50495 c -0.61644,-1.40295 -1.13723,-2.29574 -1.56237,-2.67837 -0.40389,-0.40387 -1.00971,-0.62707 -1.81746,-0.66958 v -0.60581 h 8.48146 v 0.60581 c -0.59519,0.0425 -0.90342,0.0638 -0.92468,0.0638 -0.97781,0.0637 -1.46671,0.39322 -1.46671,0.98845 0,0.42514 0.43577,1.60489 1.3073,3.53925 l 4.81465,10.77719 4.68712,-11.70185 c 0.40387,-1.02033 0.60581,-1.79621 0.60581,-2.32763 0,-0.44639 -0.17005,-0.76524 -0.51015,-0.95655 -0.34011,-0.21257 -0.94593,-0.34011 -1.81745,-0.38262 v -0.60582 l 6.53644,-3e-5 v 0.60581 c -0.78649,0.0425 -1.34979,0.23385 -1.6899,0.57394 -0.31885,0.34011 -0.73335,1.13723 -1.24352,2.39138 l -7.07851,17.88758 h -0.47827 m 22.34752,0.0956 c -0.95656,0 -1.91312,-0.0956 -2.86967,-0.28696 -0.95655,-0.19131 -1.95562,-0.54205 -2.9972,-1.05221 -1.04159,-0.51016 -1.95563,-1.14786 -2.74213,-1.91311 -0.78651,-0.7865 -1.44547,-1.82808 -1.97688,-3.12475 -0.51017,-1.29666 -0.76525,-2.774 -0.76525,-4.43203 0,-3.25229 1.02033,-5.93064 3.06099,-8.03507 2.0619,-2.10442 4.68711,-3.15663 7.87562,-3.15663 1.23291,0 2.44455,0.18068 3.63492,0.54205 1.21163,0.34011 1.9131,0.51016 2.10441,0.51016 0.34011,0 0.63771,-0.0957 0.89279,-0.28696 0.25509,-0.21257 0.43577,-0.46765 0.54205,-0.76525 h 0.70147 l 0.25508,6.72777 h -0.73335 c -0.68022,-1.65803 -1.53049,-2.97595 -2.55081,-3.95376 -1.02033,-0.99907 -2.45517,-1.4986 -4.30451,-1.4986 -1.21163,0 -2.2851,0.2232 -3.22039,0.6696 -0.9353,0.42513 -1.68991,0.97781 -2.26384,1.65802 -0.57395,0.68021 -1.0416,1.47734 -1.40296,2.39138 -0.36137,0.91405 -0.61645,1.7962 -0.76524,2.64647 -0.12754,0.82901 -0.19131,1.66866 -0.19131,2.51893 0,2.95469 0.74399,5.29294 2.23196,7.01473 1.50923,1.70055 3.5605,2.55082 6.15383,2.55082 1.14787,0 2.13632,-0.18068 2.96533,-0.54205 0.85027,-0.38263 1.2754,-0.82902 1.2754,-1.33917 v -5.1654 c 0,-1.19038 -0.17005,-1.93437 -0.51016,-2.23197 -0.31885,-0.31885 -1.0841,-0.52079 -2.29574,-0.60582 v -0.57393 h 8.13072 v 0.57393 c -0.93529,0.085 -1.54111,0.28697 -1.81745,0.60582 -0.27633,0.2976 -0.4145,0.91405 -0.4145,1.84935 v 6.47268 c -0.63771,0.55268 -1.79621,1.06284 -3.4755,1.53049 -1.65802,0.46765 -3.16725,0.70147 -4.52768,0.70147 m -218.203634,-0.82902 5.6755598,-6.02628 c 2.76338087,-2.93344 4.1450713,-5.69683 4.1450713,-8.29016 0,-1.33917 -0.4145072,-2.42326 -1.24352149,-3.25227 -0.82901397,-0.82902 -1.91310941,-1.24353 -3.25228641,-1.24353 -1.1053526,0 -1.9981372,0.30822 -2.6783539,0.92467 -0.6589603,0.59519 -1.307292,1.66866 -1.9449952,3.22041 l -0.6695885,-0.15943 c 0.106284,-0.48891 0.212568,-0.91404 0.3188519,-1.27541 0.1062833,-0.36136 0.3294795,-0.88215 0.6695885,-1.56237 0.3613647,-0.70147 0.7546151,-1.2754 1.179751,-1.72179 0.4463923,-0.46766 1.0522102,-0.88217 1.8174538,-1.24353 0.7865007,-0.36137 1.6686571,-0.54205 2.6464694,-0.54205 1.65802827,0 3.050347,0.54205 4.1769561,1.62615 1.1478659,1.08409 1.7217989,2.42327 1.7217989,4.01753 0,2.40201 -1.3604337,5.02722 -4.08130107,7.87563 l -5.35670793,5.61179 h 7.6205546 c 0.7227304,0 1.2541498,-0.11691 1.5942582,-0.35074 0.3613653,-0.25508 0.8396428,-0.83964 1.4348327,-1.75368 l 0.4145067,0.15942 -1.7536839,4.36828 H -8.041264 v -0.38264 m 33.319997,-10.04381 c 0,-0.91404 -0.09566,-1.78557 -0.286965,-2.61458 -0.170055,-0.85027 -0.488906,-1.70055 -0.956555,-2.55082 -0.467649,-0.87153 -1.073468,-1.61552 -1.817456,-2.23196 -0.743987,-0.61645 -1.721799,-1.11598 -2.933435,-1.49861 -1.211636,-0.40387 -2.593326,-0.60581 -4.14507,-0.60581 -0.658961,0 -1.105354,0.085 -1.339178,0.25507 -0.212568,0.17006 -0.318852,0.49954 -0.318852,0.98845 v 16.19766 c 0,0.51017 0.116913,0.8609 0.350738,1.05221 0.233825,0.17005 0.669589,0.25508 1.307292,0.25508 6.759654,0 10.139481,-3.08223 10.139481,-9.24669 m 3.475484,-0.2232 c 0,0.95655 -0.106284,1.89185 -0.318852,2.8059 -0.212568,0.91404 -0.605818,1.85996 -1.179751,2.83777 -0.573933,0.97781 -1.307292,1.82808 -2.200077,2.55082 -0.892784,0.70147 -2.083163,1.28603 -3.571138,1.75369 -1.466718,0.46765 -3.135375,0.70147 -5.005971,0.70147 H 7.4230411 v -0.60583 c 1.2116366,-0.085 1.9768805,-0.29759 2.2957318,-0.6377 0.3401081,-0.34011 0.5101621,-1.08409 0.5101621,-2.23195 v -14.15701 c 0,-1.16913 -0.159425,-1.91312 -0.4782765,-2.23198 -0.2975949,-0.31885 -1.0734673,-0.53141 -2.3276174,-0.6377 v -0.60581 h 8.6089949 c 1.934367,0 3.656165,0.22319 5.165396,0.66958 1.530489,0.42514 2.752753,0.98845 3.666794,1.68992 0.935298,0.68021 1.700542,1.4986 2.295732,2.45515 0.616446,0.9353 1.030953,1.85997 1.243521,2.77402 0.233825,0.91403 0.350738,1.87059 0.350738,2.86966 m 24.224754,-2.48704 -4.910316,13.48742 h -0.478278 l -6.153836,-17.12233 c -0.531419,-1.48797 -1.009697,-2.45516 -1.434832,-2.90156 -0.403878,-0.46765 -1.020324,-0.74398 -1.849339,-0.82901 v -0.60581 h 7.811865 v 0.60581 c -0.807758,0.0425 -1.360434,0.13819 -1.658029,0.28697 -0.276338,0.12755 -0.414507,0.372 -0.414507,0.73336 0,0.38262 0.116912,0.87152 0.350737,1.46671 l 4.591464,11.98883 3.411711,-8.99161 -1.052208,-2.61458 c -0.510164,-1.27541 -0.945928,-2.06192 -1.307293,-2.35952 -0.361365,-0.31885 -0.999068,-0.48891 -1.913109,-0.51016 v -0.60581 h 8.513338 v 0.60581 c -1.636772,0.0213 -2.455158,0.39326 -2.455158,1.11599 0,0.23381 0.286966,1.09471 0.860899,2.58269 l 4.208843,10.87284 3.985644,-10.80907 c 0.340109,-0.95655 0.510164,-1.75368 0.510164,-2.39138 0,-0.42513 -0.170055,-0.73336 -0.510164,-0.92468 -0.318851,-0.21257 -0.882156,-0.36136 -1.689913,-0.44639 v -0.60581 h 6.313263 v 0.60581 c -0.850271,0.17005 -1.434832,0.38262 -1.753683,0.6377 -0.297596,0.25509 -0.595191,0.79713 -0.892785,1.62614 -1.764313,4.74026 -2.954693,7.99255 -3.57114,9.75688 -0.616446,1.76431 -1.594257,4.70837 -2.933434,8.83218 h -0.478277 l -5.101627,-13.48742 m 21.601697,12.56275 c 1.190379,0 2.125678,-0.51016 2.805895,-1.53049 0.680217,-1.02032 1.020325,-2.4339 1.020325,-4.24073 0,-2.18945 -0.425136,-3.97501 -1.275407,-5.3567 -0.850271,-1.38169 -1.944995,-2.07254 -3.284172,-2.07254 -1.126609,0 -2.040651,0.45702 -2.742124,1.37106 -0.680217,0.91405 -1.020325,2.12569 -1.020325,3.63492 0,2.27447 0.414507,4.20883 1.243521,5.80309 0.829015,1.59426 1.91311,2.39139 3.252287,2.39139 m -0.382623,0.89279 c -1.998137,0 -3.666793,-0.7121 -5.00597,-2.13631 -1.317921,-1.44546 -1.976881,-3.24166 -1.976881,-5.38859 0,-2.18945 0.648332,-3.97503 1.944995,-5.35672 1.317921,-1.40295 3.018463,-2.10442 5.101628,-2.10442 2.04065,0 3.719935,0.68022 5.037855,2.04066 1.31792,1.36043 1.97688,3.08223 1.97688,5.1654 0,2.2107 -0.680217,4.06004 -2.04065,5.54802 -1.360434,1.48797 -3.03972,2.23196 -5.037857,2.23196 m 7.858704,-0.31885 v -0.47828 c 1.020325,-0.19132 1.6474,-0.40389 1.881225,-0.6377 0.255081,-0.23383 0.382621,-0.75462 0.382621,-1.56237 v -7.9713 c 0,-0.70147 -0.08503,-1.19038 -0.25508,-1.46672 -0.148797,-0.2976 -0.425135,-0.4464 -0.829014,-0.4464 -0.340109,0 -0.712103,0.0425 -1.115982,0.12755 v -0.51017 c 1.700543,-0.55267 3.273544,-1.12661 4.719005,-1.7218 l 0.159426,0.0638 v 2.93342 c 0.7865,-1.1266 1.456089,-1.90247 2.008766,-2.32761 0.552675,-0.4464 1.158493,-0.6696 1.817454,-0.6696 0.552676,0 0.977811,0.1488 1.275405,0.44641 0.318852,0.29759 0.478278,0.7121 0.478278,1.24352 0,0.44639 -0.116912,0.79713 -0.350736,1.05221 -0.212567,0.25508 -0.510162,0.38262 -0.892785,0.38262 v -1e-5 c -0.318851,0 -0.712102,-0.18069 -1.179752,-0.54206 -0.467649,-0.38261 -0.775872,-0.57392 -0.924669,-0.57392 -0.425135,0 -0.903413,0.30822 -1.434832,0.92466 -0.531419,0.61645 -0.797129,1.17975 -0.797129,1.68992 v 7.17416 c 0,0.91405 0.180682,1.53049 0.542047,1.84934 0.361366,0.31885 1.084097,0.49953 2.168192,0.54205 v 0.47828 h -7.65244 m 10.775189,2e-5 v -0.47828 c 0.999068,-0.085 1.658028,-0.27634 1.976879,-0.57393 0.318852,-0.29759 0.478278,-0.87153 0.478278,-1.7218 v -15.20922 c 0,-0.74399 -0.09565,-1.25415 -0.286966,-1.53049 -0.191311,-0.27634 -0.542048,-0.41451 -1.052211,-0.41451 -0.425135,0 -0.818386,0.0213 -1.179751,0.0638 v -6e-5 -0.51016 c 2.104421,-0.51016 3.794334,-0.97781 5.069741,-1.40294 l 0.127541,0.0638 v 19.03544 c 0,0.87152 0.138169,1.44545 0.414507,1.72179 0.297595,0.25508 0.956556,0.41451 1.976884,0.47828 v 0.47828 h -7.524902 m 18.303582,-3.25231 v -7.33359 c 0,-0.85027 -0.32948,-1.59425 -0.98844,-2.23196 -0.65896,-0.63771 -1.41358,-0.95656 -2.26385,-0.95656 -1.21163,0 -2.17881,0.54205 -2.90154,1.62614 -0.72273,1.0841 -1.0841,2.52956 -1.0841,4.33638 0,1.95563 0.40388,3.52863 1.21164,4.71902 0.80775,1.16912 1.87059,1.75368 3.18851,1.75368 0.80776,0 1.47735,-0.2232 2.00877,-0.66959 0.55267,-0.46765 0.82901,-0.88215 0.82901,-1.24352 m 0.45437,-17.85571 c 0.78118,-0.23382 1.46937,-0.45702 2.06456,-0.66958 l 0.15942,0.0638 v 18.0789 c 0,0.74397 0.085,1.23287 0.25508,1.4667 0.19131,0.23383 0.57393,0.35075 1.14786,0.35075 0.10629,0 0.35074,-0.0106 0.73337,-0.0319 v 0.51015 l -4.68712,1.65803 -0.12754,-0.0957 v -2.04065 c -1.02033,1.42421 -2.38076,2.13631 -4.0813,2.13631 -1.76431,0 -3.18852,-0.62708 -4.27262,-1.88123 -1.08409,-1.2754 -1.62613,-2.93343 -1.62613,-4.97408 0,-2.25323 0.64833,-4.16634 1.94499,-5.73934 1.29666,-1.59425 2.85903,-2.39138 4.68712,-2.39138 1.14787,0 2.26385,0.45702 3.34794,1.37106 v -4.97409 c 0,-0.65895 -0.0957,-1.09471 -0.28697,-1.30728 -0.19131,-0.21257 -0.58456,-0.31885 -1.17975,-0.31885 -0.29759,0 -0.53142,0.0106 -0.70147,0.0319 v -0.51015 c 0.96718,-0.25508 1.84137,-0.49954 2.62256,-0.73337"
         style="font-style:normal;font-variant:normal;font-weight:normal;font-stretch:normal;font-size:27.78160286px;line-height:1.25;font-family:FreeSerif;-inkscape-font-specification:'FreeSerif, Normal';font-variant-ligatures:normal;font-variant-caps:normal;font-variant-numeric:normal;font-feature-settings:normal;text-align:start;letter-spacing:0px;word-spacing:0px;writing-mode:lr-tb;text-anchor:start;display:inline;fill:none;fill-opacity:1;stroke:#000000;stroke-width:0.7971285"
         id="path1173"
         inkscape:connector-curvature="0" />
      <path
         d="m 213.30651,220.34394 c -3.51869,0 -6.25778,-0.95569 -8.21728,-2.86708 -1.84362,-1.79393 -2.77596,-4.15914 -2.79703,-7.09563 0.0211,-3.29954 1.14831,-5.905 3.38172,-7.81638 2.11753,-1.82596 4.82501,-2.73894 8.12246,-2.73894 0.76905,0 2.30715,0.0961 4.61431,0.28831 0.46354,0.0427 0.83226,0.25627 1.10617,0.64068 0.49514,0.77951 0.57942,1.6391 0.25284,2.57878 l -0.0316,0.032 c -0.37926,0.95033 -1.02189,1.38814 -1.9279,1.31342 l -4.40888,-0.44849 c -2.38091,-0.22424 -4.04543,0.17619 -4.99357,1.20129 -1.35901,1.46291 -1.9437,3.21946 -1.75407,5.26966 0.14749,1.7085 0.906,3.18742 2.27555,4.43677 1.26419,1.13187 2.81283,1.69781 4.64592,1.69781 h 0.6321 c 0.46353,0 0.85859,-0.16551 1.18518,-0.49652 0.32659,-0.33102 0.48988,-0.67272 0.48988,-1.02511 V 212.976 c 0,-0.35238 -0.11589,-0.62467 -0.34766,-0.81688 -0.27391,-0.30966 -0.52675,-0.40576 -0.75851,-0.2883 l -0.91654,0.46449 c -0.72691,0.35238 -1.20626,0.0801 -1.43803,-0.81687 v -0.032 c -0.23177,-0.7795 -0.13695,-1.44154 0.28444,-1.98613 0.34765,-0.46984 0.81646,-0.70476 1.40642,-0.70476 l 4.42468,-1e-5 c 0.53728,-0.0214 0.99555,0.16551 1.37481,0.5606 0.38979,0.38441 0.57416,0.84891 0.55309,1.3935 v 6.00644 c -0.0211,0.73679 -0.26338,1.39884 -0.72692,1.98614 -0.453,0.56593 -1.03769,0.92365 -1.75407,1.07315 -0.36872,0.0641 -0.72164,0.12279 -1.05876,0.17619 -1.36955,0.23492 -2.5758,0.35238 -3.61875,0.35238 m -24.66753,-0.83288 c -0.68477,-0.50188 -1.15358,-1.14791 -1.40641,-1.93809 l -4.64602,-14.28733 c -0.25283,-0.76883 -0.14748,-1.47893 0.31606,-2.1303 0.46353,-0.66203 1.08509,-0.99305 1.86468,-0.99305 h 0.55309 c 0.49513,0 0.95867,0.15483 1.39062,0.46449 0.41085,0.29899 0.67949,0.69941 0.80592,1.20128 l 1.78566,6.91944 c 0.96923,3.47039 1.59079,5.84627 1.8647,7.12765 h 0.0948 c 0.0737,-0.38441 0.70581,-2.72292 1.89629,-7.01554 l 1.73827,-7.06357 c 0.11589,-0.45916 0.4056,-0.85959 0.86914,-1.2013 0.40032,-0.2883 0.99555,-0.43245 1.78568,-0.43245 h 0.0475 c 0.80067,0 1.43803,0.3417 1.9121,1.02509 0.45301,0.64069 0.54782,1.35078 0.28445,2.13029 l -4.78813,14.31938 c -0.27391,0.80086 -0.74272,1.42553 -1.40643,1.87401 -0.77959,0.48051 -1.53285,0.72077 -2.25976,0.72077 h -0.44245 c -0.8428,0 -1.59605,-0.24026 -2.25976,-0.72077 m -16.51364,1.13729 c -1.03242,0 -2.32822,-0.23492 -3.88739,-0.70476 -0.48461,-0.11746 -0.85861,-0.41111 -1.12198,-0.88095 -0.27391,-0.46984 -0.35293,-0.95569 -0.23704,-1.45756 l 0.0316,-0.0641 c 0.13695,-0.54459 0.44246,-0.95035 0.91654,-1.2173 0.48461,-0.27763 0.99555,-0.32569 1.53284,-0.14416 1.26419,0.40577 2.28081,0.60866 3.04986,0.60866 0.92708,0 1.65926,-0.19755 2.19655,-0.59264 0.53728,-0.3417 0.80592,-0.83823 0.80592,-1.4896 0,-0.56594 -0.23704,-1.04112 -0.71111,-1.42553 -0.48461,-0.39509 -1.32214,-0.8062 -2.51259,-1.23333 -3.65563,-1.32408 -5.48345,-3.33157 -5.48345,-6.02246 0,-1.82596 0.69004,-3.28352 2.07012,-4.37269 1.39062,-1.13186 3.2079,-1.68712 5.45185,-1.66579 0.81119,0 1.90156,0.17085 3.27111,0.51255 0.49514,0.11746 0.87966,0.41111 1.15357,0.88095 0.26337,0.49119 0.33712,0.98772 0.22124,1.48959 l -0.0316,0.032 c -0.14749,0.49119 -0.44248,0.87026 -0.88495,1.13721 -0.42139,0.25628 -0.88493,0.31501 -1.3906,0.17619 -0.88495,-0.25627 -1.68034,-0.38441 -2.38618,-0.38441 -0.90601,-0.0107 -1.61185,0.17619 -2.11752,0.5606 -0.42141,0.35238 -0.63211,0.77951 -0.63211,1.28138 0,0.58729 0.27918,1.06781 0.83753,1.44154 0.48461,0.30967 1.40116,0.72612 2.74963,1.24935 l 1e-5,7e-5 c 1.75935,0.66205 3.04462,1.48426 3.85581,2.46665 0.84279,0.97171 1.26418,2.15698 1.26418,3.55581 0,1.71919 -0.59523,3.14472 -1.78568,4.27659 -1.42221,1.32409 -3.4976,1.98614 -6.22616,1.98614 m -23.67208,-0.96114 c -0.37926,-0.37373 -0.56889,-0.87026 -0.56889,-1.48959 v -7.91251 h -0.44246 c -0.453,0 -0.82699,-0.16017 -1.12197,-0.4805 -0.32658,-0.33103 -0.48987,-0.71545 -0.48987,-1.15325 v -0.032 c 0,-0.4378 0.16329,-0.82221 0.48987,-1.15324 0.33711,-0.32035 0.7111,-0.48586 1.12197,-0.49653 h 0.44246 v -2.13028 c 0,-1.13189 0.47934,-2.25843 1.43803,-3.37964 1.17992,-1.37745 2.84971,-2.0822 5.00938,-2.11427 0.51621,-0.0107 0.97975,0.21357 1.39062,0.67273 0.41085,0.46983 0.54781,1.00908 0.41086,1.61774 l -4e-5,0.048 c -0.20017,0.8649 -0.64263,1.31338 -1.3274,1.34545 -1.81201,0.0854 -2.71802,0.96103 -2.71802,2.62682 v 1.31341 h 1.24841 c 0.43194,0 0.8112,0.16551 1.13778,0.49653 0.30551,0.32035 0.46353,0.70476 0.47406,1.15324 v 0.032 c 0,0.45916 -0.15802,0.84358 -0.47406,1.15325 -0.29499,0.32033 -0.67425,0.4805 -1.13778,0.4805 h -1.24839 v 7.91251 c 0,0.57661 -0.20017,1.07314 -0.6005,1.48959 -0.41087,0.40577 -0.90074,0.60865 -1.46962,0.60865 h -0.0632 c -0.57942,0 -1.07983,-0.20288 -1.50124,-0.60865 m -12.04146,-2.01814 c 0.85333,-0.0107 1.63292,-0.41109 2.33877,-1.20128 0.54782,-0.65137 0.827,-2.24241 0.83753,-4.77312 -0.0105,-1.2707 -0.28971,-2.21572 -0.83753,-2.83506 -0.62156,-0.67273 -1.40115,-1.01442 -2.33877,-1.02509 -0.81119,0.0107 -1.51703,0.35238 -2.11753,1.02509 -0.71638,0.82222 -1.07457,1.76724 -1.07457,2.83506 0.0105,2.40258 0.36873,3.99362 1.07457,4.77312 0.70585,0.79019 1.41169,1.19061 2.11753,1.20128 m 0,2.73892 c -2.02271,0.0854 -3.79785,-0.64067 -5.32542,-2.17833 -1.51703,-1.53765 -2.27555,-3.36895 -2.27555,-5.4939 0.0105,-2.13563 0.74798,-3.94557 2.21234,-5.42982 1.47489,-1.48425 3.12361,-2.22105 4.94616,-2.21038 0.13696,-0.0107 0.27918,-0.016 0.42667,-0.016 2.11753,0 3.91374,0.75281 5.38863,2.25842 1.48543,1.49494 2.23342,3.29955 2.24395,5.41382 v -2e-5 c -0.0105,2.11427 -0.76378,3.92422 -2.25975,5.42984 -1.49597,1.49491 -3.13942,2.23704 -4.93036,2.22637 -0.14749,0.0107 -0.28972,0.0107 -0.42667,0 m -22.41456,-3.62829 c 0.35028,-0.40882 0.53161,-0.96127 0.54398,-1.65735 v -5.41382 c -0.22124,-0.59797 -0.75326,-1.06247 -1.59605,-1.3935 -0.95869,-0.37373 -1.91737,-0.32568 -2.87605,0.14416 -0.46354,0.21356 -0.83226,0.63001 -1.10617,1.24934 -0.26337,0.5873 -0.39506,1.24401 -0.39506,1.97012 v 1.92206 c 0,1.11053 0.28444,2.05554 0.85333,2.83504 0.57943,0.77948 1.2958,1.15855 2.14913,1.13722 0.45301,0.0641 0.93235,0.016 1.43803,-0.14415 0.41307,-0.14544 0.74269,-0.36181 0.98886,-0.64912 m 2.85113,-17.49836 c 0.61103,0 1.13777,0.22424 1.58024,0.67272 0.44247,0.44848 0.6637,0.98238 0.6637,1.60171 v 17.74707 c 0.0211,0.23491 -0.0685,0.44847 -0.26864,0.64068 -0.18963,0.19221 -0.41086,0.28831 -0.6637,0.28831 h -2.70221 c -0.27391,0 -0.49515,-0.0961 -0.66371,-0.28831 -0.18962,-0.19221 -0.2739,-0.40577 -0.25283,-0.64068 v 0 c -1.06403,0.61933 -2.19128,0.92899 -3.38173,0.92899 -1.9279,0 -3.56082,-0.72078 -4.89876,-2.16233 -1.34847,-1.44155 -2.02271,-3.18208 -2.02271,-5.2216 0,-2.0502 0.67424,-3.79608 2.02271,-5.23763 1.33794,-1.44155 2.97086,-2.16232 4.89876,-2.16232 h 10e-6 c 1.19045,0 2.3177,0.30967 3.38173,0.929 v -4.82118 c 0,-0.61933 0.21597,-1.15323 0.6479,-1.60171 0.44247,-0.44848 0.97448,-0.67272 1.59604,-0.67272 h 0.0632 m -18.6943,20.26175 c -0.463539,-0.46983 -0.695308,-1.03577 -0.695308,-1.69782 v -15.31245 c 0,-0.66203 0.231769,-1.22797 0.695308,-1.69781 0.431933,-0.44848 0.979751,-0.67272 1.643454,-0.67272 h 0.04741 c 0.663706,0 1.222056,0.22424 1.675056,0.67272 0.46354,0.46984 0.69531,1.03578 0.69531,1.69781 v 15.31245 c 0,0.66205 -0.23177,1.22799 -0.69531,1.69782 -0.453,0.45916 -1.01135,0.68874 -1.675056,0.68874 h -0.04741 c -0.632097,0 -1.179915,-0.22958 -1.643454,-0.68874 m -11.172322,0 c -0.421399,-0.42713 -0.632098,-0.9557 -0.632098,-1.58571 v -10.17092 c 0,-0.63001 0.210699,-1.15857 0.632098,-1.58569 0.463539,-0.44848 0.995554,-0.67272 1.596047,-0.67272 h 0.07901 c 0.769053,0 1.511768,0.55526 2.228145,1.66577 0.316049,-0.50187 0.632098,-0.85958 0.948147,-1.07315 0.611028,-0.4378 1.722467,-0.6567 3.334317,-0.6567 l 1.5e-5,3e-5 c 0.294979,0 0.516213,0.10144 0.663702,0.30433 0.168558,0.22424 0.2265,0.4645 0.173827,0.72078 l -0.316049,1.4896 c -0.147489,0.9503 -0.510945,1.38276 -1.090368,1.29738 -0.969217,-0.16017 -1.796212,0.005 -2.480985,0.49654 -0.695307,0.50187 -1.106171,1.03578 -1.232591,1.60172 -0.02107,0.12814 -0.03161,0.2456 -0.03161,0.35238 v 0.032 h -0.03161 v 6.19865 c 0,0.59798 -0.221234,1.12655 -0.663702,1.58571 -0.421399,0.43781 -0.94288,0.65671 -1.564443,0.65671 h -0.04741 c -0.621563,0 -1.143043,-0.2189 -1.564442,-0.65671 m -10.050359,-1.87402 c 0.853333,-0.0107 1.63292,-0.41109 2.338763,-1.20128 0.547819,-0.65137 0.826996,-2.24241 0.837529,-4.77312 -0.01054,-1.2707 -0.289712,-2.21572 -0.837529,-2.83506 -0.621564,-0.67273 -1.401152,-1.01442 -2.338763,-1.02509 -0.811193,0.0107 -1.517035,0.35238 -2.117528,1.02509 -0.716377,0.82222 -1.074566,1.76724 -1.074566,2.83506 0.01054,2.40258 0.368724,3.99362 1.074566,4.77312 0.705843,0.79019 1.411685,1.19061 2.117528,1.20128 m 0,2.73892 c -2.022713,0.0854 -3.797855,-0.64067 -5.325425,-2.17833 -1.517035,-1.53765 -2.275553,-3.36895 -2.275553,-5.4939 0.01054,-2.13563 0.747983,-3.94557 2.212344,-5.42982 1.474895,-1.48425 3.123617,-2.22105 4.946165,-2.21038 0.136955,-0.0107 0.279177,-0.016 0.426666,-0.016 2.117528,0 3.913739,0.75281 5.388634,2.25842 1.485432,1.49494 2.233415,3.29955 2.243948,5.41382 v -2e-5 c -0.01054,2.11427 -0.763785,3.92422 -2.25975,5.42984 -1.495965,1.49491 -3.139419,2.23704 -4.930364,2.22637 -0.147489,0.0107 -0.28971,0.0107 -0.426665,0 m -22.597487,-11.34015 -2.13333,8.50513 c -0.200165,0.79018 -0.642633,1.47358 -1.327406,2.0502 -0.653167,0.54459 -1.40115,0.81688 -2.243947,0.81688 h -0.06322 c -0.769053,0 -1.480163,-0.23492 -2.133331,-0.70476 -0.674237,-0.49119 -1.137775,-1.0945 -1.390614,-1.80993 L 39.969468,203.1094 c -0.252839,-0.74747 -0.158025,-1.4629 0.284444,-2.1463 0.463539,-0.67272 1.100904,-1.00908 1.912097,-1.00908 h 0.347653 c 0.505678,0 0.963949,0.14949 1.374813,0.44848 0.400329,0.26695 0.66897,0.66738 0.805924,1.20129 l 1.912097,7.23977 c 1.274729,4.57025 1.906826,6.90876 1.896293,7.01554 h 0.09481 c 0.695307,-3.41701 1.743537,-8.0353 3.144688,-13.85488 0.126419,-0.58729 0.431933,-1.08383 0.916541,-1.4896 0.442468,-0.37373 0.979751,-0.5606 1.611849,-0.5606 h 0.06322 c 0.611027,0 1.14831,0.18687 1.611849,0.5606 0.484609,0.38441 0.800658,0.88095 0.948147,1.4896 1.27473,5.14686 2.322959,9.76515 3.144687,13.85488 h 0.09481 c 0.05268,-0.25628 0.684772,-2.59479 1.896293,-7.01554 l 1.880492,-7.23977 c 0.115884,-0.4378 0.405595,-0.83823 0.869134,-1.20129 0.368724,-0.29899 0.81646,-0.44848 1.343208,-0.44848 h 0.347652 c 0.800658,0 1.438023,0.33102 1.912096,0.99307 0.453003,0.63001 0.537283,1.35078 0.25284,2.16231 l -5.072585,14.81592 c -0.252839,0.73678 -0.695307,1.34009 -1.327405,1.80993 -0.611027,0.46984 -1.322137,0.70476 -2.13333,0.70476 h -0.0632 c -0.853332,0 -1.622384,-0.27229 -2.307157,-0.81688 -0.674238,-0.5339 -1.116707,-1.2173 -1.327406,-2.0502 l -2.07012,-8.50513 m -30.103674,0.032 c 0,-1.98614 -0.6479,-3.58252 -1.943701,-4.78915 -1.422221,-1.32409 -3.144688,-1.98613 -5.167401,-1.98613 h -0.0158 c -0.431934,0 -0.800658,0.15483 -1.106172,0.46449 -0.284445,0.28831 -0.426667,0.66205 -0.426667,1.12121 v 12.50943 c 0,0.44849 0.142222,0.82222 0.426667,1.12121 0.316049,0.30967 0.684773,0.4645 1.106172,0.4645 h 0.0158 c 2.022713,0 3.74518,-0.66205 5.167401,-1.98614 1.295801,-1.20662 1.943701,-3.51309 1.943701,-6.91942 m 5.214812,1.26535 c 0,2.90446 -0.979752,5.24297 -2.939255,7.01553 -2.117528,1.86868 -5.06205,2.80302 -8.833567,2.80302 -0.695307,0 -2.349297,-0.0641 -4.961969,-0.1922 -0.421398,-0.0214 -0.769052,-0.1762 -1.042961,-0.46451 -0.263374,-0.29899 -0.395061,-0.66204 -0.395061,-1.08916 v -16.65789 c 0,-0.41645 0.136954,-0.76883 0.410863,-1.05714 0.263375,-0.27759 0.595226,-0.43242 0.995554,-0.46449 2.275553,-0.16017 3.76625,-0.24026 4.472092,-0.24026 3.539748,0 6.442131,0.88628 8.707149,2.65885 2.391437,1.89003 3.587155,4.45278 3.587155,7.68825 m -33.2167437,9.03371 c -0.2528391,-0.63001 -0.1843617,-1.19061 0.205432,-1.68181 0.6637021,-0.83289 3.08674407,-4.04701 7.2691258,-9.64235 0.1369529,-0.20285 0.2106973,-0.32031 0.2212333,-0.35238 0.4846055,-0.70476 0.7005725,-1.32409 0.6479012,-1.858 -0.031605,-0.22423 -0.1106178,-0.49652 -0.2370373,-0.81687 -0.1369547,-0.36306 -0.3107818,-0.63001 -0.5214813,-0.80086 -0.1053493,-0.0855 -0.2370359,-0.1709 -0.3950599,-0.25628 -0.8217279,-0.45916 -1.532838,-0.65671 -2.1333304,-0.59264 -0.73744791,0.0854 -1.38534828,0.35772 -1.94370109,0.81688 -0.28444441,0.26694 -0.62156351,0.39508 -1.01135721,0.38441 -0.4003289,-0.0214 -0.742715,-0.14948 -1.0271585,-0.38441 h -0.031608 c -0.4108588,-0.29899 -0.5952205,-0.72611 -0.5530852,-1.28138 0.04214,-0.50187 0.2739088,-0.91297 0.6953079,-1.23332 1.3274052,-0.97171 2.88657962,-1.45756 4.6775234,-1.45756 2.1069935,0 3.7662507,0.51789 4.9777714,1.55367 1.2325909,1.05713 1.8488864,2.3652 1.8488864,3.92421 0,0.86493 -0.1738271,1.69782 -0.5214812,2.49868 l 6.7e-6,-6e-5 c -0.4635387,1.08917 -1.0113568,1.98613 -1.6434545,2.69089 -0.9270772,1.03578 -2.4072397,2.87776 -4.4404875,5.52593 H 7.068775 c 0.4951431,0 0.9323439,0.18687 1.3116025,0.5606 0.3581893,0.38442 0.5372839,0.82223 0.5372839,1.31342 v 0.0481 c 0,0.52323 -0.1790946,0.97705 -0.5372839,1.36146 -0.3476533,0.37374 -0.7848541,0.56061 -1.3116025,0.56061 h -9.4814682 c -0.663703,0 -1.1167065,-0.29365 -1.3590105,-0.88094"
         style="display:inline;font-style:normal;font-variant:normal;font-weight:normal;font-stretch:normal;font-size:24.00017738px;line-height:1.25;font-family:Dyuthi;-inkscape-font-specification:'Dyuthi, Normal';font-variant-ligatures:normal;font-variant-caps:normal;font-variant-numeric:normal;font-feature-settings:normal;text-align:start;letter-spacing:0px;word-spacing:0px;writing-mode:lr-tb;text-anchor:start;fill:none;fill-opacity:1;stroke:#000000;stroke-width:0.81456995"
         id="path881"
         inkscape:connector-curvature="0"
         sodipodi:nodetypes="ccccscccccccccsscsscccccccccccccccccccssccccccccssccccscccccccccscsccsccccccccccsccccscccscscsscccsccccccscsccscscscsscccccccccccccccsccccccccccccsscccccssccsscccscccsscscsccsscsscsscssccsscssccccccccccsccscsscccccccccccccccscccccccccssccccsscccccccsscccccccssccccsscccccsscsscssccccsccssccscccccccccccccccccscsccccscsscssc" />
    </g>
  </g>
</svg>
